<svg version="1.1" id="Слой_1" xmlns="http://www.w3.org/2000/svg" x="0" y="0" viewBox="0 0 350 250" xml:space="preserve"><style>.st2{fill:#fff}</style><path d="M102.4 75.7l-7.7 89.1C83.3 173.7 69 179 53.5 179c-15.4 0-29.6-5.2-40.9-13.9L4.9 75.7h97.5z" fill="#c5604d"/><path fill="#c97150" d="M53.7 84.1v92.8l32-9 7.2-83.8z"/><path class="st2" d="M23.3 95.7l3.1 37.3h41.8l-1.4 15.4-13.1 3.6-13.7-3.9-.4-9.6H26.9l1.5 18.9 25.3 7.2 25.2-7.2 3.1-37H38l-1.1-12 46.1-.3 1.1-12.4z"/><path d="M26 48.7v6.4h-6.2v-6.4h-5.7v18.4h5.7v-6H26v6h5.7V48.7zm25.8 0H34.4v6.4H40v12.2h6.1V55.1h5.7zm32.6 12.7V48.9h-6.1v18.4h14.9v-5.9zM69 48.9l-4.2 6.6-4.3-6.6h-6.1v18.4h6.1v-9.1l4.3 6.4 4.2-6.4v9.1h6.1V48.9z" fill="#151617"/><path d="M347 76.2l-7.7 89c-11.4 8.8-25.7 14.1-41.1 14.1s-29.8-5.2-41.1-14.1l-7.7-89H347z" fill="#4e6d9c"/><path fill="#4f87b2" d="M298.1 84.6v92.9l32.2-9 7.1-83.9z"/><path class="st2" d="M326.5 121h-23.2l24.2-12.4 1-12.4h-60.9l1.1 12.6h24.5l-23.5 11.8 1.1 12.9h41.9l-1.4 15.5-13.2 3.5-13.7-3.8-.4-9.7h-12.7l1.6 19 25.2 7.1 25.3-7.1z"/><path d="M274.3 62.4v-8.7H287v-4.8h-17.3v18.3H287v-4.8zm20-6.3v-2.2h12.6v-5h-17.2v11.4h12.4v2.1h-12.4v4.8h17.2V56.1zm19.6 0v-2.2h12.6v-5h-17.2v11.4h12.4v2.1h-12.4v4.8h17.2V56.1z" fill="#1b1b1d"/><path d="M227.6 76.3h-99.7l9.3 105 40.5 11.9 40.5-11.9 9.4-105z" fill="#d9a24d"/><path d="M177.8 84.8v99.5l32.8-9.6 8-89.8h-40.8z" fill="#e2ba50"/><path class="st2" d="M203.9 97.7h-50.5l-3.5 39.3.1-.2h42.8l-1.4 16.6-13.7 4.1-13.9-4.2-.8-10.1h-12.6l1.8 20.1 25.5 7.5 25.5-7.5 3.5-39.4h-45.5l.6-13.2h31.6l.5 7.5h12.7l-2.7-20.5z"/><path d="M177.8 97.7h-24.3L150 137l.1-.2h27.8V124h-14.7l.6-13.2h14.1l-.1-13.1zm-14.7 45.6h-12.6l1.8 20.1 25.5 7.5v-13.4l-13.9-4.2-.8-10z" fill="#ecebea"/><path d="M168.1 60.8h-8.9v6.6h15.3V47.8h-6.3l-.1 13zm28.2-12.9h-15.5v6.9C182.9 57 184 58 187 61h-6.2v6.2h15.5V61l-6.2-6.2h6.2v-6.9z" fill="#1f1a1c"/></svg>