<svg version="1.1" id="Слой_1" xmlns="http://www.w3.org/2000/svg" x="0" y="0" viewBox="0 0 350 250" xml:space="preserve"><style>.st1{fill:#d79852}.st2{fill:#e1b756}.st3{fill:#c9724e}</style><path d="M245.7 212.9c0 .1-.1.2 0 0zm42.2-14.7c-3.4 0-6.7.8-9.8 2.3-1-2-2-3.7-2.2-5.1-.2-1.5-.4-2.4-.2-4.3.2-1.8 1.3-4.4 1.3-4.6 0-.2-.2-1.1-2.4-1.1-2.2 0-4.1.4-4.3 1-.4 1-.7 2.1-.9 3.2-.4 2-4.3 9.1-6.6 12.7-.8-1.4-1.4-2.7-1.5-3.7-.2-1.5-.4-2.4-.2-4.3.2-1.8 1.3-4.4 1.3-4.6 0-.2-.2-1.1-2.4-1.1s-4.1.4-4.3 1c-.2.6-.4 1.9-.9 3.2-.4 1.3-5.7 13.1-7.1 16.1-.7 1.6-1.3 2.8-1.7 3.6-.1.1-.1.2-.2.3.1-.1.1-.2.1-.1-.4.7-.6 1.1-.6 1.1-.3.5-.6 1-.8 1-.1 0-.3-1.4.1-3.4.8-4.1 2.7-10.4 2.7-10.7 0-.1.4-1.2-1.2-1.8-1.5-.5-2.1.4-2.2.4s-.2.3-.2.3 1.7-7.2-3.3-7.2c-3.1 0-7.4 3.4-9.6 6.5-1.4.7-4.2 2.3-7.3 4-1.1.7-2.4 1.3-3.5 1.9-.1-.1-.2-.2-.2-.3-6-6.5-17.2-11-16.7-19.7.2-3.2 1.2-11.5 21.5-21.6 16.6-8.3 29.8-6 32.1-.9 3.3 7.2-7.1 20.5-24.3 22.5-6.6.7-10-1.8-10.9-2.8-.9-1-1-1-1.4-.9-.5.3-.2 1.2 0 1.7.5 1.4 2.6 3.7 6.2 4.9 3.2 1 10.9 1.6 20.2-2 10.4-4 18.6-15.2 16.2-24.6-2.4-9.6-18.3-12.7-33.2-7.3-8.9 3.2-18.5 8.2-25.5 14.6-8.3 7.7-9.6 14.5-9 17.2 1.9 9.9 15.6 16.5 21.1 21.2-.3.2-.5.3-.8.4-2.8 1.4-13.2 6.8-15.9 12.7-2.9 6.6.5 11.2 2.8 11.9 7.1 2 14.3-1.6 18.2-7.4s3.4-13.4 1.6-16.8c0-.1-.1-.1-.1-.1.7-.4 1.4-.9 2.2-1.2 1.4-.8 2.8-1.6 4-2.2-.7 1.8-1.1 4-1.4 7.2-.3 3.7 1.2 8.5 3.2 10.4.9.8 2 .9 2.6.9 2.3 0 3.4-1.9 4.6-4.2 1.4-2.8 2.7-6.1 2.7-6.1s-1.6 8.8 2.8 8.8c1.6 0 3.2-2.1 3.9-3.1 0 0 .1-.1.1-.2.2-.3.3-.4.3-.4v-.1c.7-1.1 2.1-3.6 4.2-7.8 2.7-5.4 5.4-12.1 5.4-12.1.3 1.5.6 2.9 1 4.3.5 1.6 1.5 3.4 2.3 5.1-.7.9-1 1.4-1 1.4v.1c-.5.7-1.1 1.4-1.7 2.1-2.2 2.6-4.7 5.5-5.1 6.4-.4 1-.3 1.7.5 2.3.6.4 1.6.5 2.7.4 2-.1 3.3-.6 4-.9 1.2-.4 2.4-1 3.4-1.8 2.1-1.6 3.4-3.8 3.3-6.7-.1-1.6-.6-3.3-1.2-4.8.2-.3.4-.5.6-.9 3.4-4.9 5.9-10.3 5.9-10.3.3 1.5.6 2.9 1 4.3s1.2 2.9 1.9 4.3c-3.2 2.6-5.1 5.5-5.8 7.4-1.2 3.6-.3 5.2 1.6 5.6.8.2 2-.2 2.9-.6 1.3-.4 2.6-1.1 3.6-1.9 2.1-1.6 4.2-3.7 4-6.7-.1-1.4-.4-2.7-.9-4 2.7-1.1 6.1-1.7 10.5-1.2 9.4 1.1 11.2 7 10.9 9.5-.4 2.4-2.3 3.8-3 4.2-.7.4-.9.5-.8.9.1.4.4.4.9.3.8-.1 4.9-2 5.1-6.5.1-5.2-5.4-11.6-15.2-11.5zm-72.6 24.5c-3.1 3.4-7.5 4.7-9.3 3.6-2-1.2-1.2-6.2 2.6-9.8 2.3-2.2 5.3-4.2 7.3-5.5.4-.3 1.1-.7 1.9-1.1.1-.1.2-.1.2-.1.2-.1.3-.2.5-.3 1.4 5 .1 9.6-3.2 13.2zm22.7-15.5c-1.1 2.7-3.4 9.4-4.7 9.1-1.2-.3-1.9-5.5-.2-10.5.9-2.6 2.7-5.6 3.7-6.8 1.7-1.9 3.6-2.5 4-1.7.5.9-2.1 8.3-2.8 9.9zm18.8 9c-.4.2-.9.4-1.1.3-.2-.1.2-.4.2-.4s2.3-2.5 3.3-3.7c.5-.7 1.1-1.5 1.8-2.3v.3c0 2.9-2.9 5-4.2 5.8zm14.5-3.3c-.3-.2-.3-1 .9-3.5.4-1 1.5-2.6 3.2-4.1.2.6.3 1.2.3 1.8-.1 3.7-2.8 5.2-4.4 5.8z" fill="#a85a7c"/><path class="st1" d="M189.7 92.4l-12.8-14.3 39.3-14.3 6.1 16.8-32.6 11.8z"/><path class="st2" d="M189.6 92.2l-.6 19.2 39.3-14.3-6.1-16.8-32.6 11.9z"/><path class="st3" d="M298.7 52.8c5.6 16.2-12.4 37.5-40.5 47.8S202.5 106 196.4 90l102.3-37.2z"/><path d="M298.7 52.8C292.6 36.7 265 32 236.9 42.2S190.8 73.8 196.4 90l102.3-37.2z" fill="#e9c75a"/><path class="st1" d="M298.7 52.8c3.5 10.9-16.1 27.8-44.1 38s-53.9 9.8-58.2-.7l102.3-37.3z"/><path class="st2" d="M298.7 52.8c-4.2-10.6-30.2-11-58.2-.8s-47.7 27.2-44.1 38l102.3-37.2z"/><path class="st3" d="M251.5 38c-2.7-9.2-5.7-14.3-9.2-14.3-6.7.2-8.9 21.4-6.8 48.5 2.2 27.4 7.9 48.1 14.9 47.9 4.2-.1 6.6-6.8 7.4-18.6 0-.2-.3-.1-.2-.3 0 0-.1-.4-.2-.4l-.9-.1c-.7 11.4-2.9 17.9-6.1 18-5.8.2-11.4-20.3-13.5-46.6-2.1-25.9.2-46.9 5.4-47.1 2.5-.1 5.3 4.7 7.8 13.1l1.4-.1z"/><path class="st3" d="M218.4 31.4c-5.7 3.5 2.9 23 18.4 45.4 15.6 22.7 30.8 37.7 36.8 34 3.4-2.1 2.4-8.3-1.9-17.8-.1-.2-.3-.4-.5-.4-.3-.1-.5.1-.7.3-.2.2-.2.5-.1.7 4 8.8 4.9 14.6 2.4 16.1-4.9 3-20-11.8-35-33.6C223 54.7 214.5 35.4 219 32.6c2.4-1.5 8 2.1 15.6 9.7.1.1.5.6.7.6.2.1.1-.4.3-.6.1-.1.2-.3.2-.5s-.1-.4-.2-.5c-7.9-8.1-14-11.8-17.2-9.9z"/><path d="M118 99.9l-3.4 5.9-1.1 19.2c0 2.1-6.7 3.9-15.1 3.9s-15.1-1.7-15.1-3.9l-1.4-19-3.6-6.1c9.9 4.1 30.2 4 39.7 0zM71.1 39.4l3.3 30c1.4-4.8 4.9-11.2 9.6-13.2 1.5-.7 3-.7 4.5.2 1.2.7 2.3 2.2 2.4 2.8.3 1.6-.5 2.2-1.1 2.2-.7 0-1.2-1.1-1.6-1.7-1-1.7-2.4-1.8-4-.7-1.6 1.2-3.1 3.2-4.1 4.9-1.2 2.1-2.2 4.4-2.9 6.7-.4 1.4-.7 3.5-.2 4.8.2.5.6.9 1.2.9 1.2 0 2.9-1.6 3.7-2.4 1.1-1.1 2.4-2.8 3-3.8l1.2-3.7c.6-1.6 2.4-1.4 2.4 0 0 2.4-.9 3.3-2.4 8.3-1.4 4.7-1.8 6.1-1.8 6.1-.2.7-.8 1.8-1.5 1.8-.3 0-.5-.1-.6-.3-.2-.2-.2-1.2-.2-1.4.1-.8 1.5-5.3 1.7-6-.5.5-1 1-1.5 1.6-1.3 1.2-3.4 2.8-5.2 2.8-.8 0-1.4-.2-1.8-.6l1.8 19c.5 1.2 9.3 4.1 21.1 4.1s20.6-2.9 21.1-4.1l2.6-22.6c-1.4 1.2-2.9 2.8-4.7 3.5-1.3.5-4.2.9-4.2-1.4 0-1.2 2.2-3.5 3.4-5.2.3-.4 1.1-1.4 1.1-2 0-.7-1.4-.5-2.8.6-.8.7-1.5 1.5-2.1 2.3-1 1.4-1.6 2.7-2 3.7-1.5 3.4-1 2.1-2.2 5.3-1.2 3.2-1 2.8-1.2 3.4-.2.4-.5.8-1 1.1-.4.2-1.1.2-1.5-.1-.2-.2-.3-.4-.3-.9 0-.2 0-.4.1-.7.4-1.5 1.8-4.3 3.6-8.2.4-.9.2-.6.2-.5-1.5 1.4-2.6 2.1-3.4 2.5-1.4.6-3.1.6-3.5-1 0-.1 0-.2-.1-.3-2.8 2.2-5.8 2.8-4.8-2-1.1 2-3 3.6-5.4 3.6-1 0-1.7-.3-2.1-1.2-.5-1.3.3-3.6 1.1-5.7.4-1.1 1-2.4 1.7-3.9.4-.8 1-1.3 1.8-1.1.2.1.3.1.4.2.6.4.4 1.1.1 1.7-.9 1.8-1.7 3.1-2.2 4.9-.2.8-.5 2.2.4 2.2.6 0 1.1-.2 1.6-.6 1.1-.8 2-2 2.7-3.2.5-.9 1-2 1.4-2.9.1-.4.3-.8.4-1.1.3-.6.6-1.2 1.2-1.2.3 0 .6.1.8.4.4.5.3 1.1.1 1.6-.5 1.4-1.1 2.6-1.6 4-.3.8-.7 1.9-.7 2.8 0 .8.9.6 1.6.3.6-.3 1.1-.7 1.6-1.1.3-1.2.2-.9 6.3-16.3.3-.8.9-1.1 1.5-1.1.3 0 .5.1.8.3.4.3.4 1 .2 1.5-.2.4-.2.3-1.1 2.5-1.2 2.9-2.1 4.9-3.2 7.6-.4 1.1-1.8 4.5-2.1 5.3-.2.5-.3 1.4.2 1.4 1.3 0 4.6-3.2 5.5-4.1l.2-.2c.2-.4.3-.9.4-1.3.3-.9.7-2 1.2-2.7.2-.2.4-.4.7-.4.7 0 1 .3 1 1 0 .3-.2 1.2-.3 1.5.3-.4.7-.7 1.1-1.1 3.6-3.3 6.1-1.6 6.1.1 0 1.8-2.1 4.2-3.3 5.6-.4.4-1.2 1.3-1.2 1.5 0 .3.2.4.5.4.5 0 1.5-.8 1.9-1.1 1.2-.9 2.8-2.4 4-3.4l3.5-32.7c-6.8 4.2-46.8 4.2-54.1.2zm54.9-2.1c0 5-55.3 5-55.3 0 0-2.1 12.4-3.8 27.6-3.8 2.2 0 4.2 0 6.3.1l3-11.6 14.7-15.4c.3-.3 1.4-.1 2.4.8s1.6 1.9 1.2 2.2l-13.7 14.5-2.4 9.7c9.6.7 16.2 2 16.2 3.5zm-16.6 1.1c0-.2-.2-.4-.6-.5l-.1.2c0 .3-1.2.6-2.7.6s-2.7-.3-2.7-.6V38l.1-.2c-.4.2-.7.3-.7.5 0 .5 1.5.9 3.3.9 2 .2 3.4-.3 3.4-.8z" fill="#b55553"/><path d="M141.7 155.7l-19.1-9.2c-2.2-1.1-4.8-.6-6.6 1.1l-62.7 57.1c-1.7 1.5-1.7 4.2 0 5.7l5.1 4.7c1.4 1.2 3.5 1.4 4.9.2l75.4-57.2c2.6-1.9 6.1-.1 6.1 3v-.2c.2-2.2-1.1-4.3-3.1-5.2z" fill="#4c6993"/><path d="M141.7 228.5l-19.1 9.2c-2.2 1.1-4.8.6-6.6-1.1l-62.7-57.1c-1.7-1.5-1.7-4.2 0-5.7l5.1-4.7c1.4-1.2 3.5-1.4 4.9-.2l75.4 57.2c2.6 1.9 6.1.1 6.1-3v.2c.2 2.2-1.1 4.2-3.1 5.2z" fill="#4d78aa"/><path d="M122.6 237.7c-2.2 1.1-4.8.6-6.6-1.1 2.1 2.1 5.8.6 5.8-2.4V150c0-3-3.6-4.6-5.8-2.4 1.7-1.7 4.4-2.2 6.6-1.1l19.1 9.2c2 1 3.3 3 3.3 5.2v62.4c0 2.2-1.3 4.2-3.3 5.2l-19.1 9.2z" fill="#4c90c8"/><g opacity=".25"><linearGradient id="SVGID_1_" gradientUnits="userSpaceOnUse" x1="98.473" y1="-106.135" x2="98.473" y2="-13.726" gradientTransform="translate(0 252)"><stop offset="0" stop-color="#fff"/><stop offset="1" stop-color="#fff" stop-opacity="0"/></linearGradient><path d="M117.9 237.9c1.5.5 3.2.5 4.6-.2l19.1-9.2c2-1 3.3-3 3.3-5.2v-62.4c0-2.2-1.3-4.2-3.3-5.2l-19.1-9.2c-2-.9-4.2-.7-5.9.5-.2.2-.5.4-.7.6L79.3 181l-15.9-12.1c-1.5-1.1-3.6-1-4.9.2l-5.1 4.7c-1.7 1.5-1.7 4.2 0 5.7l13.9 12.6-13.9 12.6c-1.7 1.5-1.7 4.2 0 5.7l5.1 4.7c1.4 1.2 3.5 1.4 4.9.2l15.9-12.1 36.6 33.4c.6.5 1.3 1 2 1.3zm3.8-66.9l-27.8 21.1 27.8 21.1V171z" fill="url(#SVGID_1_)"/></g></svg>