<svg version="1.1" id="Слой_1" xmlns="http://www.w3.org/2000/svg" x="0" y="0" viewBox="0 0 350 250" xml:space="preserve"><style>.st3{fill:#fff}.st6{fill:#f3f2f1}.st17{fill:#cb5b52}</style><linearGradient id="SVGID_1_" gradientUnits="userSpaceOnUse" x1="2.989" y1="-249.83" x2="2.989" y2="-249.549" gradientTransform="matrix(213.3 0 0 256 -424.6 64002)"><stop offset=".3" stop-color="#c85253"/><stop offset=".438" stop-color="#c85150"/><stop offset=".594" stop-color="#c85149"/><stop offset=".758" stop-color="#c25249"/><stop offset=".927" stop-color="#a24f48"/><stop offset="1" stop-color="#944d49"/></linearGradient><path d="M206.9 102.4c-4.1-4.9-6.8-12-7-20.1v-1.8c.2-8 2.8-15.2 7-20.1 5.3-6.9 13.2-10 22-10 5.4 0 10.6.4 14.9 3.3-6.5-5.9-15.1-9.4-24.6-9.5h-.1c-20.5 0-37.2 16.7-37.2 37.2 0 19.9 15.7 36.2 35.4 37.1h1.8c9.5 0 18.2-3.5 24.8-9.4-4.4 2.9-9.2 3-14.6 3-8.9.1-17.1-2.8-22.4-9.7z" fill="url(#SVGID_1_)"/><linearGradient id="SVGID_2_" gradientUnits="userSpaceOnUse" x1="2.845" y1="-249.861" x2="2.845" y2="-249.575" gradientTransform="matrix(170.1 0 0 222.4 -252.3 55618.906)"><stop offset="0" stop-color="#894a47"/><stop offset=".7" stop-color="#cd6261"/></linearGradient><path d="M206.9 60.5c3.4-4.1 7.8-6.5 12.6-6.5 10.8 0 19.6 12.2 19.6 27.4s-8.7 27.4-19.6 27.4c-4.8 0-9.2-2.5-12.6-6.5 5.3 6.9 13.2 11.3 22.1 11.3 5.4 0 10.5-1.6 14.9-4.6 7.6-6.8 12.4-16.7 12.4-27.7s-4.8-20.9-12.4-27.7c-4.4-2.9-9.4-4.6-14.9-4.6-8.9.2-16.8 4.6-22.1 11.5z" fill="url(#SVGID_2_)"/><linearGradient id="SVGID_3_" gradientUnits="userSpaceOnUse" x1="2.114" y1="-250.675" x2="2.365" y2="-250.675" gradientTransform="matrix(0 256 -256 0 -63870 -510)"><stop offset="0" stop-color="#ededed"/><stop offset="1" stop-color="#ededed"/></linearGradient><path d="M340.4 81.3c0 20.8-16.8 37.7-37.7 37.7-20.8 0-37.7-16.8-37.7-37.7s16.8-37.7 37.7-37.7c20.8.1 37.7 16.9 37.7 37.7" fill="url(#SVGID_3_)"/><path class="st3" d="M338.5 81.3c0 19.8-16 35.8-35.8 35.8-19.8 0-35.8-16-35.8-35.8s16-35.8 35.8-35.8c19.8-.1 35.8 16 35.8 35.8"/><path d="M327 65.8l-20.2 19.7V110c0 .4-1.9.8-4.1.8-2.1 0-4.1-.4-4.1-.8V85.4l-20.1-19.7c-.3-.3.7-1.8 2.3-3.4 1.6-1.6 3.1-2.6 3.4-2.3l18.4 18L321 60c.3-.3 1.8.7 3.4 2.3 1.8 1.6 2.9 3.2 2.6 3.5" fill="#c85149"/><circle transform="matrix(.07089 -.9975 .9975 .07089 -89.316 239.538)" cx="83.9" cy="167.7" fill="#4c94cb" r="37.9"/><path class="st6" d="M83.9 135.5c-.3 0-.4-.2-.4-.4V133c0-.3.2-.4.4-.4s.4.2.4.4v2.1c.1.2-.2.4-.4.4zm0 67.5c-.3 0-.4-.2-.4-.4v-2.1c0-.3.2-.4.4-.4s.4.2.4.4v2.1c.1.2-.2.4-.4.4zm-5.7-67c-.2 0-.4-.1-.4-.4l-.4-2.1c-.1-.2.1-.5.4-.5.2-.1.5.1.5.4l.4 2.1c0 .2-.2.5-.5.5zM90 202.5c-.2 0-.4-.1-.4-.4l-.4-2.1c-.1-.2.1-.5.4-.5.2-.1.5.1.5.4l.4 2.1c0 .2-.2.5-.5.5zm-17.3-65c-.2 0-.4-.1-.4-.3l-.7-2c-.1-.2.1-.5.3-.6.2-.1.5.1.6.3l.7 2c.1.2-.1.5-.3.6-.1-.1-.1 0-.2 0zm23.1 63.4c-.2 0-.4-.1-.4-.3l-.7-2c-.1-.2.1-.5.3-.6.2-.1.5.1.6.3l.7 2c.1.2-.1.5-.3.6h-.2zm-28.3-61c-.1 0-.3-.1-.4-.2l-1.1-1.8c-.1-.2-.1-.5.1-.6.2-.1.5-.1.6.1l1.1 1.8c.1.2.1.5-.1.6 0 .1-.1.1-.2.1zm33.8 58.5c-.1 0-.3-.1-.4-.2l-1.1-1.8c-.1-.2-.1-.5.1-.6.2-.1.5-.1.6.1l1.1 1.8c.1.2.1.5-.1.6 0 .1-.1.1-.2.1zm-38.5-55.3c-.1 0-.3-.1-.4-.1l-1.4-1.6c-.1-.2-.1-.5.1-.6.2-.1.5-.1.6.1l1.4 1.6c.1.2.1.5-.1.6h-.2zm43.5 51.7c-.1 0-.3-.1-.4-.1l-1.4-1.6c-.1-.2-.1-.5.1-.6s.5-.1.6.1l1.4 1.6c.1.2.1.5-.1.6h-.2zm-47.5-47.6c-.1 0-.2 0-.3-.1l-1.6-1.4c-.2-.1-.2-.4-.1-.6.1-.2.4-.2.6-.1l1.6 1.4c.2.1.2.4.1.6 0 .1-.1.2-.3.2zm51.8 43.4c-.1 0-.2 0-.3-.1l-1.6-1.4c-.2-.1-.2-.4-.1-.6.1-.2.4-.2.6-.1l1.6 1.4c.2.1.2.4.1.6-.1.1-.2.2-.3.2zm-55-38.8c-.1 0-.1 0-.2-.1l-1.8-1.1c-.2-.1-.3-.4-.1-.6.1-.2.4-.3.6-.1l1.8 1.1c.2.1.3.4.1.6-.1.1-.3.2-.4.2zm58.5 33.8c-.1 0-.1 0-.2-.1l-1.8-1.1c-.2-.1-.3-.4-.1-.6.1-.2.4-.3.6-.1l1.8 1.1c.2.1.3.4.1.6-.1.2-.3.2-.4.2zm-61-28.6H53l-2-.7c-.2-.1-.4-.4-.3-.6s.4-.4.6-.3l2 .7c.2.1.4.4.3.6 0 .2-.3.3-.5.3zm63.5 23.1h-.1l-2-.7c-.2-.1-.4-.4-.3-.6s.4-.4.6-.3l2 .7c.2.1.4.4.3.6s-.3.3-.5.3zm-64.9-17.6l-2.2-.4c-.2-.1-.4-.3-.4-.5.1-.2.3-.4.5-.4l2.1.4c.2.1.4.3.4.5 0 .3-.2.4-.4.4zm66.5 11.8l-2.2-.4c-.2-.1-.4-.3-.4-.5s.3-.4.5-.4l2.1.4c.2.1.4.3.4.5s-.2.4-.4.4zm-67-6.1h-2.1c-.3 0-.4-.2-.4-.4s.2-.4.4-.4h2.1c.3 0 .4.2.4.4s-.1.4-.4.4zm67.6 0h-2.1c-.3 0-.4-.2-.4-.4s.2-.4.4-.4h2.1c.3 0 .4.2.4.4s-.2.4-.4.4zm-69.2 6.1c-.2 0-.4-.1-.4-.4-.1-.2.1-.5.4-.5l2.1-.4c.3-.1.5.1.5.4.1.2-.1.5-.4.5l-2.2.4c.1 0 0 0 0 0zm66.5-11.8c-.2 0-.4-.1-.4-.4-.1-.2.1-.5.4-.5l2.1-.4c.2-.1.5.1.5.4.1.2-.1.5-.4.5l-2.2.4c.1 0 .1 0 0 0zm-64.9 17.6c-.2 0-.4-.1-.4-.3-.1-.2.1-.5.3-.6l2-.7c.2-.1.5.1.6.3.1.2-.1.5-.3.6l-2 .7h-.2zm63.5-23.1c-.2 0-.4-.1-.4-.3-.1-.2.1-.5.3-.6l2-.7c.2-.1.5.1.6.3s-.1.5-.3.6l-2 .7h-.2zm-60.9 28.6c-.1 0-.3-.1-.4-.2-.1-.2-.1-.5.1-.6l1.8-1.1c.2-.1.5-.1.6.1.1.2.1.5-.1.6l-1.8 1.1c-.1.1-.2.1-.2.1zm58.4-33.8c-.1 0-.3-.1-.4-.2-.1-.2-.1-.5.1-.6l1.8-1.1c.2-.1.5-.1.6.1.1.2.1.5-.1.6l-1.8 1.1c0 .1-.1.1-.2.1zm-55 38.8c-.1 0-.3-.1-.4-.1-.1-.2-.1-.5.1-.6l1.6-1.4c.2-.1.5-.1.6.1.1.2.1.5-.1.6l-1.6 1.4c0-.1-.1 0-.2 0zm51.8-43.4c-.1 0-.3-.1-.4-.1-.1-.2-.1-.5.1-.6l1.6-1.4c.2-.1.5-.1.6.1.1.2.1.5-.1.6l-1.6 1.4c0-.1-.2 0-.2 0zm-47.5 47.6c-.1 0-.2 0-.3-.1-.2-.1-.2-.4-.1-.6l1.4-1.6c.1-.2.4-.2.6-.1.2.1.2.4.1.6l-1.4 1.6c0 .2-.2.2-.3.2zm43.4-51.7c-.1 0-.2 0-.3-.1-.2-.1-.2-.4-.1-.6l1.4-1.6c.1-.2.4-.2.6-.1.2.1.2.4.1.6l-1.4 1.6c0 .2-.1.2-.3.2zm-38.4 55.3c-.1 0-.1 0-.2-.1-.2-.1-.3-.4-.1-.6l1.1-1.8c.1-.2.4-.3.6-.1.2.1.3.4.1.6l-1.2 1.8c0 .1-.1.2-.3.2zm33.8-58.5c-.1 0-.1 0-.2-.1-.2-.1-.3-.4-.1-.6l1.1-1.8c.1-.2.4-.3.6-.1.2.1.3.4.1.6l-1.1 1.8c-.2.1-.3.2-.4.2zm-28.3 61h-.1c-.2-.1-.4-.4-.3-.6l.7-2c.1-.2.4-.4.6-.3.2.1.4.4.3.6l-.7 2c-.2.2-.3.3-.5.3zm23.1-63.4H95c-.2-.1-.4-.4-.3-.6l.7-2c.1-.2.4-.4.6-.3.2.1.4.4.3.6l-.7 2c-.2.1-.3.3-.5.3zm-17.2 65c-.3-.1-.5-.3-.4-.5l.4-2.1c.1-.2.3-.4.5-.4.2.1.4.3.4.5l-.4 2.1c-.2.2-.3.4-.5.4zM89.6 136c-.3-.1-.5-.3-.4-.5l.4-2.1c.1-.2.3-.4.5-.4.2.1.4.3.4.5l-.4 2.1c-.1.2-.3.4-.5.4zm-8.3 3c-.2 0-.4-.2-.4-.4l-.5-5.5c0-.3.1-.5.4-.5.3 0 .5.1.5.4l.5 5.5c0 .3-.2.5-.5.5.1 0 0 0 0 0zm5.6 63.9c-.2 0-.4-.2-.4-.4L86 197c0-.3.1-.5.4-.5.3 0 .5.1.5.4l.5 5.5c0 .2-.2.4-.5.5zm-10.6-63c-.2 0-.4-.1-.4-.4l-1.4-5.3c-.1-.2.1-.5.4-.6.2-.1.5.1.6.4l1.4 5.3c.1.2-.1.5-.4.6h-.2zm16.6 61.9c-.2 0-.4-.1-.4-.4l-1.4-5.3c-.1-.2.1-.5.4-.6.2-.1.5.1.6.4l1.4 5.3c.1.2-.1.5-.4.6h-.2zm-21.4-60.1c-.1 0-.4-.1-.4-.3l-2.4-5c-.1-.2 0-.5.2-.6.2-.1.5 0 .6.2l2.4 5c.1.2 0 .5-.2.6-.1.1-.1.1-.2.1zm27.1 58c-.1 0-.4-.1-.4-.3l-2.4-5c-.1-.2 0-.5.2-.6.2-.1.5 0 .6.2l2.4 5c.1.2 0 .5-.2.6-.1.1-.1.1-.2.1zm-31.5-55.5c-.1 0-.3-.1-.4-.2l-3.2-4.5c-.1-.2-.1-.5.1-.6.2-.1.5-.1.6.1l3.2 4.5c.1.2.1.5-.1.6 0 .1-.1.1-.2.1zm36.8 52.5c-.1 0-.3-.1-.4-.2l-3.2-4.5c-.1-.2-.1-.5.1-.6.2-.1.5-.1.6.1l3.2 4.5c.1.2.1.5-.1.6 0 .1-.2.1-.2.1zm-40.7-49.2c-.1 0-.2-.1-.4-.1l-3.9-3.9c-.2-.2-.2-.5 0-.6.2-.2.5-.2.6 0l3.9 3.9c.2.2.2.5 0 .6 0 0-.1.1-.2.1zm45.3 45.3c-.1 0-.2-.1-.4-.1l-3.9-3.9c-.2-.2-.2-.5 0-.6.2-.2.5-.2.6 0l3.9 3.9c.2.2.2.5 0 .6.1.1-.1.1-.2.1zm-48.6-41.4c-.1 0-.2 0-.3-.1l-4.5-3.2c-.2-.1-.3-.4-.1-.6.1-.2.4-.3.6-.1l4.5 3.2c.2.1.3.4.1.6 0 .1-.2.2-.3.2zm52.5 36.8c-.1 0-.2 0-.3-.1l-4.5-3.2c-.2-.1-.3-.4-.1-.6.1-.2.4-.3.6-.1l4.5 3.2c.2.1.3.4.1.6 0 .1-.1.2-.3.2zm-55-32.4c-.1 0-.1 0-.2-.1l-5-2.4c-.2-.1-.4-.4-.2-.6.1-.3.4-.4.6-.2l5 2.4c.2.1.4.4.2.6-.1.2-.3.3-.4.3zm58 27.1c-.1 0-.1 0-.2-.1l-5-2.4c-.2-.1-.4-.4-.2-.6.1-.2.4-.4.6-.2l5 2.4c.2.1.4.4.2.6 0 .2-.1.3-.4.3zm-59.8-22.3h-.1l-5.3-1.4c-.2-.1-.4-.3-.4-.6.1-.2.3-.4.6-.4l5.3 1.4c.2.1.4.3.4.6-.1.2-.3.4-.5.4zm61.9 16.6h-.1l-5.3-1.4c-.2-.1-.4-.3-.4-.6.1-.2.3-.4.6-.4l5.3 1.4c.2.1.4.3.4.6-.1.3-.3.4-.5.4zm-62.8-11.6l-5.5-.5c-.3 0-.4-.2-.4-.5s.2-.4.5-.4l5.5.5c.3 0 .4.2.4.5-.1.3-.3.4-.5.4zm63.9 5.6s-.1 0 0 0l-5.5-.5c-.3 0-.4-.2-.4-.5s.2-.4.5-.4l5.5.5c.3 0 .4.2.4.5-.1.2-.3.4-.5.4zm-69.4 0c-.2 0-.4-.2-.4-.4 0-.3.1-.5.4-.5l5.5-.5c.3 0 .5.1.5.4 0 .3-.1.5-.4.5l-5.6.5zm63.9-5.6c-.2 0-.4-.2-.4-.4 0-.3.1-.5.4-.5l5.5-.5c.3 0 .5.1.5.4 0 .3-.1.5-.4.5l-5.6.5zm-62.9 11.6c-.2 0-.4-.1-.4-.4-.1-.2.1-.5.4-.6l5.3-1.4c.2-.1.5.1.6.4.1.2-.1.5-.4.6l-5.3 1.4h-.2zm62-16.6c-.2 0-.4-.1-.4-.4s.1-.5.4-.6l5.3-1.4c.2-.1.5.1.6.4.1.2-.1.5-.4.6l-5.3 1.4h-.2zm-59.9 22.3c-.1 0-.4-.1-.4-.3-.1-.2 0-.5.2-.6l5-2.4c.2-.1.5 0 .6.2.1.2 0 .5-.2.6l-5 2.4c0 .1-.1.1-.2.1zm58.1-27.1c-.1 0-.4-.1-.4-.3-.1-.2 0-.5.2-.6l5-2.4c.2-.1.5 0 .6.2.1.2 0 .5-.2.6l-5 2.4c0 .1-.1.1-.2.1zm-55 32.4c-.1 0-.3-.1-.4-.2-.1-.2-.1-.5.1-.6l4.5-3.2c.2-.1.5-.1.6.1.1.2.1.5-.1.6l-4.5 3.2c0 .1-.2.1-.2.1zm52.5-36.8c-.1 0-.3-.1-.4-.2-.1-.2-.1-.5.1-.6l4.5-3.2c.2-.1.5-.1.6.1.1.2.1.5-.1.6l-4.5 3.2c0 .1-.1.1-.2.1zm-48.7 41.4c-.1 0-.2-.1-.4-.1-.2-.2-.2-.5 0-.6l3.9-3.9c.2-.2.5-.2.6 0 .2.2.2.5 0 .6l-3.9 3.9c.1.1 0 .1-.2.1zm45.4-45.3c-.1 0-.2-.1-.4-.1-.2-.2-.2-.5 0-.6l3.9-3.9c.2-.2.5-.2.6 0 .2.2.2.5 0 .6l-3.9 3.9c.1 0-.1.1-.2.1zm-40.7 49.2c-.1 0-.2 0-.3-.1-.2-.1-.3-.4-.1-.6l3.2-4.5c.1-.2.4-.3.6-.1.2.1.3.4.1.6l-3.2 4.5c0 .1-.1.2-.3.2zm36.8-52.5c-.1 0-.2 0-.3-.1-.2-.1-.3-.4-.1-.6l3.2-4.5c.1-.2.4-.3.6-.1.2.1.3.4.1.6L101 144c0 .1-.2.2-.3.2zm-31.5 55.5c-.1 0-.1 0-.2-.1-.2-.1-.4-.4-.2-.6l2.4-5c.1-.2.4-.4.6-.2.2.1.4.4.2.6l-2.4 5c-.1.3-.2.3-.4.3zm27.1-58c-.1 0-.1 0-.2-.1-.2-.1-.4-.4-.2-.6l2.4-5c.1-.2.4-.4.6-.2.2.1.4.4.2.6l-2.4 5c-.1.2-.3.3-.4.3zm-21.4 60.1h-.1c-.2-.1-.4-.3-.4-.6l1.4-5.3c.1-.2.3-.4.6-.4.2.1.4.3.4.6l-1.4 5.3c-.1.3-.3.4-.5.4zm16.6-61.9h-.1c-.2-.1-.4-.3-.4-.6l1.4-5.3c.1-.2.3-.4.6-.4.2.1.4.3.4.6l-1.4 5.3c-.2.3-.3.4-.5.4zm-10.7 63c-.3 0-.5-.2-.4-.5l.5-5.5c0-.3.2-.4.5-.4s.4.2.4.5l-.5 5.5c0 .2-.2.4-.5.4zm5.6-63.9c-.3 0-.5-.2-.4-.5l.5-5.5c0-.3.2-.4.5-.4s.4.2.4.5l-.5 5.5c0 .3-.2.4-.5.4z"/><path class="st6" d="M88.5 172.3l20.4-29.6-29.6 20.5L59 192.7z"/><path fill="#ccc" d="M88.5 172.3l20.4-29.6-49.9 50z"/><path fill="#cd666c" d="M88.5 172.3l20.4-29.6-29.6 20.5z"/><path fill="#cb5860" d="M88.5 172.3l20.4-29.6-25 25z"/><linearGradient id="SVGID_4_" gradientUnits="userSpaceOnUse" x1="157.157" y1="-169.869" x2="208.581" y2="-169.869" gradientTransform="matrix(1 0 0 -1 -4.63 13.08)"><stop offset="0" stop-color="#4c638f"/><stop offset="1" stop-color="#49577e"/></linearGradient><path d="M202.2 186.9c-1 .5-2 1-3.1 1.4-3.3 1.2-6.8 1.9-10.3 1.9-13.7 0-25.5-9.4-25.5-21.4 0-3.3 1.9-6.3 4.8-7.9-12.3.5-15.5 13.4-15.5 20.9 0 21.3 19.7 23.4 23.9 23.4 2.3 0 5.7-.6 7.8-1.3l.4-.1c8-2.8 14.7-8.1 19.2-15.2.4-.6.2-1.3-.4-1.6-.5-.2-.9-.2-1.3-.1z" fill="url(#SVGID_4_)"/><radialGradient id="SVGID_5_" cx="185.539" cy="-184.24" r="27.514" gradientTransform="matrix(1 0 0 -.95 -4.63 8.42)" gradientUnits="userSpaceOnUse"><stop offset=".72" stop-color="#131414" stop-opacity="0"/><stop offset=".95" stop-color="#131414" stop-opacity=".53"/><stop offset="1" stop-color="#131414"/></radialGradient><path d="M202.2 186.9c-1 .5-2 1-3.1 1.4-3.3 1.2-6.8 1.9-10.3 1.9-13.7 0-25.5-9.4-25.5-21.4 0-3.3 1.9-6.3 4.8-7.9-12.3.5-15.5 13.4-15.5 20.9 0 21.3 19.7 23.4 23.9 23.4 2.3 0 5.7-.6 7.8-1.3l.4-.1c8-2.8 14.7-8.1 19.2-15.2.4-.6.2-1.3-.4-1.6-.5-.2-.9-.2-1.3-.1z" opacity=".35" fill="url(#SVGID_5_)"/><linearGradient id="SVGID_6_" gradientUnits="userSpaceOnUse" x1="184.308" y1="-147.703" x2="152.175" y2="-182.703" gradientTransform="matrix(1 0 0 -1 -4.63 13.08)"><stop offset="0" stop-color="#4d91c1"/><stop offset=".16" stop-color="#4d8bbd"/><stop offset=".67" stop-color="#4e7cb2"/><stop offset="1" stop-color="#4e76af"/></linearGradient><path d="M166.1 201.6c-2.6-1.6-4.8-3.7-6.6-6.1-7.6-10.4-5.3-24.9 5.1-32.6 1.1-.8 2.2-1.5 3.4-2.1.9-.4 2.4-1.2 4.5-1.1 2.9 0 5.6 1.4 7.4 3.8 1.1 1.6 1.8 3.4 1.9 5.4 0-.1 7.1-22.9-23.1-22.9-12.7 0-23.1 12-23.1 22.6-.1 5.6 1.1 11.1 3.5 16.2 8 17 27.4 25.3 45.1 19.4-6.1 1.7-12.7.8-18.1-2.6z" fill="url(#SVGID_6_)"/><radialGradient id="SVGID_7_" cx="-314.455" cy="-286.722" r="41.321" gradientTransform="matrix(.15 -.99 -.8 -.12 -26.29 -156.34)" gradientUnits="userSpaceOnUse"><stop offset=".76" stop-color="#131414" stop-opacity="0"/><stop offset=".95" stop-color="#131414" stop-opacity=".5"/><stop offset="1" stop-color="#131414"/></radialGradient><path d="M166.1 201.6c-2.6-1.6-4.8-3.7-6.6-6.1-7.6-10.4-5.3-24.9 5.1-32.6 1.1-.8 2.2-1.5 3.4-2.1.9-.4 2.4-1.2 4.5-1.1 2.9 0 5.6 1.4 7.4 3.8 1.1 1.6 1.8 3.4 1.9 5.4 0-.1 7.1-22.9-23.1-22.9-12.7 0-23.1 12-23.1 22.6-.1 5.6 1.1 11.1 3.5 16.2 8 17 27.4 25.3 45.1 19.4-6.1 1.7-12.7.8-18.1-2.6z" opacity=".41" fill="url(#SVGID_7_)"/><radialGradient id="SVGID_8_" cx="207.165" cy="376.006" r="58.395" gradientTransform="matrix(-.04 1 2.13 .08 -649.59 -91.61)" gradientUnits="userSpaceOnUse"><stop offset="0" stop-color="#51add1"/><stop offset=".11" stop-color="#50acce"/><stop offset=".23" stop-color="#4fabc2"/><stop offset=".31" stop-color="#50aab6"/><stop offset=".67" stop-color="#55a462"/></radialGradient><path d="M179.5 174.9c-.2.3-.9.7-.9 1.6 0 .8.5 1.5 1.4 2.1 4.1 2.9 12 2.5 12 2.5 3.1 0 6.1-.9 8.8-2.4 5.4-3.1 8.8-9 8.8-15.2.1-6.5-2.3-10.8-3.3-12.7-6.1-12-19.3-18.8-33.6-18.8-20.2 0-36.6 16.2-36.9 36.4.1-10.5 10.6-19 23.1-19 1 0 6.8.1 12.1 2.9 4.7 2.5 7.2 5.5 8.9 8.4 1.8 3.1 2.1 7 2.1 8.6-.3 1.4-1 3.7-2.5 5.6z" fill="url(#SVGID_8_)"/><radialGradient id="SVGID_9_" cx="439.821" cy="248.217" r="28.08" gradientTransform="matrix(.28 .96 .78 -.23 -111.95 -210.84)" gradientUnits="userSpaceOnUse"><stop offset="0" stop-color="#6bad6b"/><stop offset="1" stop-color="#6bad6b" stop-opacity="0"/></radialGradient><path d="M179.5 174.9c-.2.3-.9.7-.9 1.6 0 .8.5 1.5 1.4 2.1 4.1 2.9 12 2.5 12 2.5 3.1 0 6.1-.9 8.8-2.4 5.4-3.1 8.8-9 8.8-15.2.1-6.5-2.3-10.8-3.3-12.7-6.1-12-19.3-18.8-33.6-18.8-20.2 0-36.6 16.2-36.9 36.4.1-10.5 10.6-19 23.1-19 1 0 6.8.1 12.1 2.9 4.7 2.5 7.2 5.5 8.9 8.4 1.8 3.1 2.1 7 2.1 8.6-.3 1.4-1 3.7-2.5 5.6z" fill="url(#SVGID_9_)"/><path d="M250 173.6c0 2.7 1.1 5 2.4 7.5 1.4 2.6 3.4 4.6 6 6.2 2.6 1.6 5.3 2.3 8.5 2.3 3 0 5.9-.7 8.5-2.3 2.6-1.6 4.5-3.9 6-6.4h20.1c-2.6 7.3-7 13.6-13.5 18.2-6.4 4.6-13.6 7-21.5 7-5.9 0-11.6-1.3-16.7-3.9-11.7 5.7-20.2 6-25.3.9-2.2-1.7-3-4.6-3-8.5s.7-8.3 2.3-13.1c1.6-4.9 4-10 7.6-15.9 2.7-4.6 4.7-8.1 12.5-15.6 2.9-2.9 4.1-4.3 4.9-5-6.9 3.3-15.8 9.5-22.9 15.8 4.3-10.6 10.3-16.1 17.7-20.6 7.9-4.7 14.3-7.9 22.9-7.9.9 0 1.7 0 2.7.1 6.3-2.9 12-4.3 17.2-4.7 5.2-.3 8.7.6 10.9 2.6 4.3 4.3 4.6 11.2 1.1 20.5 3.3 5.7 3.4 12.2 3.4 18.8 0 1.6.1 3 0 4.3H250v-.3z" fill="#4dabce"/><path class="st3" d="M244.3 197.9c-7.5-4.6-10-8.3-13.1-16.5-5 9.7-6.4 14.2-2.7 17.9 3.3 3.4 7.2 2.5 15.8-1.4m37.3-34.4c-.3-4-1.7-7.6-4.7-10.3-3-2.9-6.6-4-10.6-4-4.1 0-7.6 1.1-10.6 4s-5.2 6.3-5.4 10.3h31.3zm-1.7-28.8c6.9 3.4 8 4 13.2 10.2 1.7-4.7 2-6 1.3-7.5-.7-1.7-2.2-3-3.7-3.9-2.7-1.3-4.4-1.3-10.8 1.2"/><path class="st17" d="M82.2 68.4H47c-7.9 0-14.3 6.3-14.3 14.2 0 2.5.7 4.9 1.8 7L16.9 59.4c12.8-16.6 36.6-19.7 53.3-6.8 5.3 4.1 9.5 9.6 12 15.8z"/><path d="M85 82.6c0 21-17 38-38 38-1.6 0-3.2-.1-4.7-.3l17.1-30.5c3.9-6.8 1.6-15.5-5.2-19.5-2.2-1.2-4.6-1.9-7.1-1.9h35.2c1.8 4.5 2.7 9.4 2.7 14.2z" fill="#eabc50"/><path d="M59.4 89.8l-17.1 30.6c-20.9-2.6-35.7-21.7-33-42.5.9-6.7 3.5-13.1 7.7-18.5l17.6 30.2.1.1c3.9 6.8 12.6 9.2 19.5 5.2 2.1-1.1 3.9-2.9 5.2-5.1z" fill="#56a061"/><path class="st17" d="M59.4 89.8c-4 6.8-12.6 9.2-19.5 5.2-2.2-1.2-4-3.1-5.2-5.2l-.1-.1c-3.9-6.8-1.4-15.5 5.5-19.4 2.1-1.2 4.5-1.8 7-1.8s5 .7 7.1 1.9c6.7 3.9 9 12.6 5.2 19.4z"/><path d="M59.4 89.8c-4 6.8-12.6 9.2-19.5 5.2-2.2-1.2-4-3.1-5.2-5.2l-.1-.1c-3.9-6.8-1.4-15.5 5.5-19.4 2.1-1.2 4.5-1.8 7-1.8s5 .7 7.1 1.9c6.7 3.9 9 12.6 5.2 19.4z" fill="#4c8ac3"/><path d="M46.9 98.5c-2.8 0-5.5-.7-7.9-2.1s-4.4-3.4-5.8-5.8C28.8 83 31.5 73.3 39 68.9c2.4-1.4 5.2-2.1 7.9-2.1 8.7 0 15.8 7.1 15.9 15.8 0 2.8-.7 5.5-2.1 7.9-2.9 5-8.1 8-13.8 8zM47 70c-4.5 0-8.7 2.4-11 6.3-3.5 6-1.4 13.8 4.7 17.3 6 3.5 13.8 1.4 17.3-4.7 3.5-6 1.5-13.8-4.7-17.3-1.9-1-4.1-1.6-6.3-1.6z" fill="#fafcfd"/><radialGradient id="SVGID_10_" cx="-15507.405" cy="-8719.269" r="37.57" fx="-15509.802" fy="-8719.269" gradientTransform="matrix(.762 .034 -.05 1.12 11548.87 10351.034)" gradientUnits="userSpaceOnUse"><stop offset=".045" stop-color="#efe054"/><stop offset=".12" stop-color="#eed652"/><stop offset=".254" stop-color="#eaba4f"/><stop offset=".429" stop-color="#db904d"/><stop offset=".769" stop-color="#c95453"/><stop offset=".872" stop-color="#c95565"/><stop offset=".953" stop-color="#b6597b"/><stop offset="1" stop-color="#ae5983"/></radialGradient><path d="M156.7 45.4c-2 2.3-2.9 7.5-.9 12.8 2 5.3 5.1 4.2 7.1 9.5 2.5 7.1 1.3 16.7 1.3 16.7s3 8.9 5.2-.6c4.8-17.6-12.7-34.1-12.7-38.4z" fill="url(#SVGID_10_)"/><radialGradient id="_Path__1_" cx="-7978.567" cy="-8288.631" r="65.931" gradientTransform="translate(9921.514 10207.353) scale(1.225)" gradientUnits="userSpaceOnUse"><stop offset="0" stop-color="#50aab8"/><stop offset=".22" stop-color="#557fb8"/><stop offset=".261" stop-color="#5479b4"/><stop offset=".33" stop-color="#526eab"/><stop offset=".333" stop-color="#526daa"/><stop offset=".438" stop-color="#4d5892"/><stop offset=".522" stop-color="#50517b"/><stop offset=".566" stop-color="#534c70"/></radialGradient><path id="_Path_" d="M132.4 118.9c20.5 0 37-16.6 37-37.2s-16.6-37.2-37-37.2-37 16.6-37 37.2c-.1 20.6 16.5 37.2 37 37.2z" fill="url(#_Path__1_)"/><linearGradient id="SVGID_11_" gradientUnits="userSpaceOnUse" x1="137.46" y1="-153.519" x2="121.508" y2="-205.702" gradientTransform="translate(0 252)"><stop offset="0" stop-color="#2f313e" stop-opacity=".4"/><stop offset=".485" stop-color="#40455c" stop-opacity=".173"/><stop offset="1" stop-color="#474d6f" stop-opacity="0"/></linearGradient><path d="M160.1 104.7c-.8.6-1.6 1.1-2.5 1.5 1.1-1.7 2.2-3.5 3.2-5.2.8-.8 1.5-1.7 2.1-2.6.3-.4.6-1 .9-1.6 2-3.7 4.4-9.8 4.4-16v-.5c0-1.6-.1-3.1-.5-4.7 0 .1 0 .2.1.4 0-.1 0-.2-.1-.3 0 .1.1.4.1.5.4 3.6.1 7.1-1.4 9.7 0 .1-.1.1-.1.1.8-3.9 1.1-8.3.1-12.6 0 0-.4-2.1-3-8.5-1.5-3.7-4.2-6.7-6.5-9-2-2.5-3.9-4.2-4.9-5.4-2.2-2.3-3-3.9-3.5-5.1-.4-.1-4.4-4.2-4.7-4.3-1.8 2.8-7.4 11.5-4.7 19.6 1.2 3.7 4.3 7.5 7.5 9.7.1.1 1.9 2.1 2.8 6.4.8 4.5.4 8-1.4 13.2-2.1 4.5-7.5 9-12.6 9.5-10.8 1-14.7-5.4-14.7-5.4 3.9 1.6 8.1 1.2 10.7-.4 2.6-1.6 4.2-2.8 5.5-2.3s2.3-.9 1.3-2.3c-1.4-2.2-4-3.3-6.6-2.9-2.6.4-5 2.5-8.5.5-.2-.1-.4-.3-.6-.4-.2-.1.7.2.5.1-.6-.4-1.8-1.1-2.2-1.4-.1-.1.5.2.5.1-3.2-2.6-2.8-4.4-2.7-5.6.1-.9.6-2 1.6-2.5.5.3.8.4.8.4l-.3-.6h.1c.4.2 1.3.7 1.7 1 .6.4.8.8.8.8s.1-.1.1-.4c-.1-.1-.2-.6-.8-1.1h.1c.4.2.7.4 1 .7.1-.6.5-1.2.4-2.3-.1-.8 0-1-.1-1.3-.1-.3.1-.4.3-.1-.1-.2-.1-.4-.2-.6.3-.9 5.7-3.4 6.1-3.7.6-.5 1.2-1.1 1.6-1.8.3-.5.5-1.1.6-2.2 0-.7-.3-1.2-5.8-1.8-1.5-.1-2.4-1.2-2.9-2.3l-.3-.6c-.1-.2-.1-.5-.2-.7.9-2.5 2.4-4.7 4.6-6.4.1-.1-.5 0-.4-.1.1-.1 1.1-.5 1.2-.6.2-.1-.9-.6-1.9-.5-1 .1-1.2.2-1.8.5.2-.2.9-.5.8-.5-1.1.1-2.4.8-3.6 1.5 0-.1 0-.3.1-.4-.6.2-1.8 1.1-2.3 1.9v-.4c-.4.4-.8.7-1.1 1.1-3.1-1.3-5.9-1.3-8.2-.8-.5-.5-.8-.1-1.9-2.7-.1-.1.1.1 0 0-.2-.5.1.6 0 0-2 1.6-4.5 3.2-5.7 4.5 0 .1 1.4-.4 0 0-.5.1-.5.4-.6 3.1v.6c-1 1.3-1.6 2.3-1.9 2.8-1.3 2.2-2.7 5.6-4 10.9.6-1.5 1.3-2.9 2.1-4.2-1.1 2.8-2.2 7.3-2.4 14.2.3-1.4.6-2.8 1.1-4.2-.3 5.7.7 11.4 2.9 16.8.8 1.9 2 4.8 4.2 8 6.9 7.3 16.6 11.7 27.3 11.7 11.4.2 21.5-4.8 28.4-12.5z" fill="url(#SVGID_11_)"/><radialGradient id="SVGID_12_" cx="-8997.815" cy="-7142.219" r="22.239" gradientTransform="rotate(5.67 -93425.444 106790.83) scale(1.225)" gradientUnits="userSpaceOnUse"><stop offset=".003" stop-color="#efe054"/><stop offset=".497" stop-color="#c95453"/><stop offset="1" stop-color="#ae5983"/></radialGradient><path d="M151.7 109.9c13.5-1.6 19.6-15.6 11.8-15.9-6.8-.1-18.2 16.7-11.8 15.9z" fill="url(#SVGID_12_)"/><radialGradient id="SVGID_13_" cx="-8999.828" cy="-7163.544" r="37.137" gradientTransform="rotate(5.67 -93425.444 106790.83) scale(1.225)" gradientUnits="userSpaceOnUse"><stop offset=".003" stop-color="#efdf54"/><stop offset=".157" stop-color="#e5ab4e"/><stop offset=".316" stop-color="#d5804c"/><stop offset=".472" stop-color="#cd6450"/><stop offset=".621" stop-color="#c95454"/><stop offset=".762" stop-color="#c85256"/><stop offset=".892" stop-color="#c95358"/><stop offset="1" stop-color="#c95359"/></radialGradient><path d="M164.6 91.2c9.3-5.4 6.9-17.2 6.9-17.2s-3.6 4.2-6.1 10.9c-2.4 6.6-6.4 9.6-.8 6.3z" fill="url(#SVGID_13_)"/><radialGradient id="SVGID_14_" cx="-8994.575" cy="-7129.118" r="34.078" gradientTransform="rotate(5.67 -93425.444 106790.83) scale(1.225)" gradientUnits="userSpaceOnUse"><stop offset=".003" stop-color="#c95453"/><stop offset=".497" stop-color="#ae5983"/><stop offset=".986" stop-color="#553437"/></radialGradient><path d="M135 116.9c13 4.2 24.2-6.1 17.3-9.5-6.3-3.2-23.5 7.5-17.3 9.5z" fill="url(#SVGID_14_)"/><radialGradient id="SVGID_15_" cx="152.107" cy="-181.479" r="65.177" fx="154.438" fy="-182.631" gradientTransform="translate(0 252)" gradientUnits="userSpaceOnUse"><stop offset=".156" stop-color="#efe054"/><stop offset=".231" stop-color="#eed652"/><stop offset=".365" stop-color="#eaba4f"/><stop offset=".541" stop-color="#db904d"/><stop offset=".763" stop-color="#c95453"/><stop offset=".796" stop-color="#c85254"/><stop offset=".841" stop-color="#c95358"/><stop offset=".893" stop-color="#bb566d"/><stop offset=".935" stop-color="#a15981"/></radialGradient><path d="M165.6 96.2c.3-.4.8-1.9 1.1-2.5C169 90 169 87 169 86.9c1.4-6.9 1.3-9.7.4-15-.7-4.2-3.7-10.2-6.3-13.2-2.7-3-.8-2-3.4-4.2-2.3-2.5-4.5-5-5.7-6-8.7-7.3-8.5-8.8-8.3-9.1l-.1.1c-.1-.4-.1-.8-.1-.8s-4.7 4.7-5.8 12.7c-.6 5.1 1.3 10.6 4.1 14 1.5 1.8 3.1 3.4 4.9 4.9 2.1 3 3.3 6.8 3.3 10.8 0 10.1-8.2 18.3-18.3 18.3-1.4 0-2.8-.1-4.1-.5-4.8-.9-7.5-3.3-8.9-4.9-.8-.9-1.1-1.6-1.1-1.6 4.3 1.6 9 1.2 11.8-.4 2.9-1.6 4.7-2.8 6.1-2.3 1.4.5 2.5-.9 1.6-2.3-1-1.4-3.5-3.4-7.3-2.9-2.9.4-5.6 2.5-9.4.5-.2-.1-.5-.3-.7-.4-.3-.1.8.2.6.1-.7-.4-2-1.1-2.4-1.4-.1-.1.6.2.5.1-3.5-2.6-3.1-4.4-3-5.5.1-.9.7-2 1.8-2.5.5.3.8.4.8.4s-.2-.4-.4-.6h.1c.4.2 1.4.6 1.9 1 .6.4.8.8.8.8s.1-.1.1-.4c-.1-.1-.2-.6-.9-1.1h.1c.4.2.8.4 1.1.7.2-.6.5-1.2.4-2.3-.1-.8 0-1-.2-1.3-.1-.3.1-.4.3-.1-.1-.2-.1-.4-.2-.6.3-.9 6.3-3.3 6.7-3.6.7-.4 1.3-1.1 1.8-1.7.4-.5.6-1.1.6-2.2 0-.4-.1-.8-1.7-1.2-1-.2-2.4-.4-4.7-.6-1.7-.1-2.6-1.2-3.2-2.2l-.3-.6c-.1-.2-.2-.4-.2-.7 1-2.6 2.8-4.8 5.1-6.3.1-.1-.6 0-.4-.1.1-.1 1.2-.5 1.3-.6.2-.1-1-.6-2.1-.4-1.1.1-1.3.2-2 .4.2-.2 1.1-.5.8-.5-1.2.1-2.7.8-3.9 1.5 0-.1 0-.3.1-.4-.6.2-2 1.1-2.5 1.9v-.4c-.4.4-.8.7-1.2 1.1-3.5-1.3-6.5-1.3-9-.8-.6-.5-1.5-1.3-2.8-3.8-.1-.1-.1.3-.2.1-.5-1.1-.8-3-.8-4.3 0 0-1.1.5-1.9 2.4-.1.4-.3.6-.4.7-.1.1.1-.6.1-.6-.1.3-.6.6-.7 1.1-.1.4-.3.5-.4.9v-.4c-.4.8-.8 1.6-1.1 2.5-.4 1.5-1 3.5-1.1 6.2v.6c-1.1 1.3-1.8 2.3-2.1 2.8-1.4 2.2-3 5.6-4.4 10.9.6-1.5 1.5-2.8 2.4-4.2-1.3 2.8-2.5 7.3-2.7 14.1.3-1.4.7-2.8 1.1-4.2-.2 4.6.3 10.2 3.2 16.6 1.7 3.7 5.6 11.4 15.3 17.3 0 0 3.3 2.5 8.9 4.3.4.1.8.3 1.3.4-.1-.1-.3-.1-.4-.1 3.7 1.1 7.6 1.7 11.6 1.7 14.6 0 18.9-5.9 18.9-5.9h-.1l.6-.6c-2.3 2.2-7.5 2.3-9.5 2.2 3.4-1 5.6-1.8 9.9-3.5.5-.2 1-.4 1.6-.6.1 0 .1-.1.1-.1.1-.1.2-.1.3-.1 2.1-1 4.1-2.2 5.9-3.7 4.3-3.5 5.2-6.8 5.7-9-.1.2-.3.7-.4 1.1-1.1 2.4-3.6 3.8-6.3 5.1 1.3-1.7 2.5-3.4 3.5-5.2 1.3-.7 1.5-2.1 2.2-3z" fill="url(#SVGID_15_)"/><radialGradient id="SVGID_16_" cx="147.203" cy="-214.206" r="76.963" gradientTransform="translate(0 252)" gradientUnits="userSpaceOnUse"><stop offset=".279" stop-color="#efe054"/><stop offset=".402" stop-color="#eed452"/><stop offset=".63" stop-color="#e7b54e"/><stop offset=".856" stop-color="#db924d"/><stop offset=".933" stop-color="#d1724b"/><stop offset=".994" stop-color="#cd624d"/></radialGradient><path d="M160.4 104.4c1.8-1.9 3.3-4.2 4.5-6.6 3.1-6.5 7.8-17.2 4.1-28.4-3-8.9-7.1-13.8-12.2-18.5-8.4-7.7-10.7-11.1-10.7-13.2 0 0-9.7 10.8-5.5 22s12.8 10.9 18.5 22.6c6.7 13.8-5.4 28.9-15.4 33.1.6-.1 22.2-5 23.4-17.4-.1.2-.6 3.6-6.7 6.4z" fill="url(#SVGID_16_)"/><linearGradient id="SVGID_17_" gradientUnits="userSpaceOnUse" x1="-9054.7" y1="-7155.309" x2="-9031.006" y2="-7161.348" gradientTransform="rotate(5.67 -93425.444 106790.83) scale(1.225)"><stop offset="0" stop-color="#ae5983" stop-opacity=".5"/><stop offset=".474" stop-color="#c95453" stop-opacity=".5"/><stop offset=".486" stop-color="#c95453" stop-opacity=".513"/><stop offset=".675" stop-color="#d5804c" stop-opacity=".72"/><stop offset=".829" stop-color="#e6ae4d" stop-opacity=".871"/><stop offset=".942" stop-color="#f0cf51" stop-opacity=".964"/><stop offset="1" stop-color="#f0d953"/></linearGradient><path d="M132.3 64.3c0-.7-.4-1.2-6.4-1.8-2.5-.2-3.5-2.5-3.7-3.5-.9 2.3-1.3 4.7-1.1 7.6.1 1.9 1.4 3.9 2 5.1 0 0 .1-.2.2-.2 1.1-1.2 6-3 6.4-3.3.6-.3 2.5-1.6 2.6-3.9z" fill="url(#SVGID_17_)"/><linearGradient id="SVGID_18_" gradientUnits="userSpaceOnUse" x1="151.157" y1="-1527.912" x2="146.609" y2="-1539.565" gradientTransform="rotate(5.73 -15704.992 -1201.61)"><stop offset="0" stop-color="#7f485a" stop-opacity=".6"/><stop offset="1" stop-color="#ae5983" stop-opacity="0"/></linearGradient><path d="M105.7 50.7c-.1-.1-.1.3-.2.1-.5-1.1-.8-3-.7-4.3 0 0-1.1.5-1.9 2.4-.1.4-.3.6-.4.7-.1.1.1-.6.1-.6-.1.3-.6.6-.7 1.1-.1.4-.3.6-.4 1v-.4c-2 3.8-2.3 9.6-2.1 9.4 4.2-4.5 9-5.6 9-5.6-.5-.4-1.6-1.5-2.7-3.8z" fill="url(#SVGID_18_)"/><linearGradient id="SVGID_19_" gradientUnits="userSpaceOnUse" x1="-161.49" y1="89.317" x2="-153.648" y2="98.223" gradientTransform="rotate(5.73 99.187 2799.53)"><stop offset=".005" stop-color="#7f485a" stop-opacity=".5"/><stop offset=".484" stop-color="#c95453" stop-opacity=".5"/><stop offset="1" stop-color="#c95453" stop-opacity="0"/></linearGradient><path d="M121.6 97.7c-5.8-2.5-12.4-6-12.2-13.9.4-10.4 9.7-8.4 9.7-8.4-.4.1-1.3.8-1.6 1.5-.4.9-1 3 1 5.1 3.1 3.3-6.3 8 8.3 16.6.3.1-3.4-.1-5.2-.9z" fill="url(#SVGID_19_)"/><linearGradient id="SVGID_20_" gradientUnits="userSpaceOnUse" x1="-146.704" y1="104.758" x2="-146.698" y2="98.526" gradientTransform="rotate(5.73 99.187 2799.53)"><stop offset="0" stop-color="#ae5983"/><stop offset=".083" stop-color="#ae5983" stop-opacity=".81"/><stop offset=".206" stop-color="#ae5983" stop-opacity=".565"/><stop offset=".328" stop-color="#ae5983" stop-opacity=".362"/><stop offset=".447" stop-color="#ae5983" stop-opacity=".204"/><stop offset=".562" stop-color="#ae5983" stop-opacity=".091"/><stop offset=".673" stop-color="#ae5983" stop-opacity=".023"/><stop offset=".773" stop-color="#ae5983" stop-opacity="0"/></linearGradient><path d="M119.6 92.5c4.1 1.4 8.9 1.2 11.8-.4 1.9-1.1 4.4-2.8 5.9-2.4-1.3-.5-2.3-.8-3.5-.8h-.7c-.4 0-.8 0-1.3.1-.8.1-1.6.6-2.3.5-.1 0 .7-.3.6-.3-.4.1-.8.1-1.3.1-.3 0-.6.1-.8.1-8.6.7-15.9-4.7-15.9-4.7-.5 2 2.9 6.1 7.5 7.8z" fill="url(#SVGID_20_)"/><linearGradient id="SVGID_21_" gradientUnits="userSpaceOnUse" x1="144.227" y1="-211.306" x2="169.696" y2="-154.353" gradientTransform="translate(0 252)"><stop offset="0" stop-color="#f2e66a"/><stop offset=".268" stop-color="#f1e467"/><stop offset=".452" stop-color="#f1dd60"/><stop offset=".612" stop-color="#f0d155"/><stop offset=".757" stop-color="#eabe50"/><stop offset=".892" stop-color="#e3a84d"/><stop offset=".902" stop-color="#e2a64c"/><stop offset=".949" stop-color="#df9d4d"/><stop offset="1" stop-color="#db924d"/></linearGradient><path d="M160.4 104.5c8.7-8.5 13-18.9 11.2-30.5 0 0 .8 5.9-2 12.1 1.3-5.9 1.5-13.3-2.1-21-4.8-10.2-12.7-15.6-15.7-17.8-4.6-3.4-6.4-6.8-6.5-7.5-1.3 2.8-5.5 12.3-.4 20.6 4.7 7.7 12.1 10 17.3 17.1 9.5 12.8-1.8 27-1.8 27z" fill="url(#SVGID_21_)"/><linearGradient id="SVGID_22_" gradientUnits="userSpaceOnUse" x1="149.296" y1="-178.53" x2="137.231" y2="-146.137" gradientTransform="translate(0 252)"><stop offset="0" stop-color="#db904d"/><stop offset=".04" stop-color="#db904d" stop-opacity=".858"/><stop offset=".084" stop-color="#db904d" stop-opacity=".729"/><stop offset=".13" stop-color="#db904d" stop-opacity=".628"/><stop offset=".178" stop-color="#db904d" stop-opacity=".557"/><stop offset=".227" stop-color="#db904d" stop-opacity=".514"/><stop offset=".282" stop-color="#db904d" stop-opacity=".5"/><stop offset=".389" stop-color="#db904d" stop-opacity=".478"/><stop offset=".524" stop-color="#db904d" stop-opacity=".416"/><stop offset=".676" stop-color="#db904d" stop-opacity=".314"/><stop offset=".838" stop-color="#db904d" stop-opacity=".172"/><stop offset="1" stop-color="#db904d" stop-opacity="0"/></linearGradient><path d="M159.1 82.3c-3-6.3-6.8-9-10.4-12 .4.6.5.8.8 1.2 3.2 3.4 7.8 11.6 4.4 21.9-6.3 19.4-31.7 10.2-34.4 7.7 1.1 11.2 19.8 16.6 32 9.3 6.9-6.7 12.5-17.8 7.6-28.1z" fill="url(#SVGID_22_)"/></svg>