<svg version="1.1" id="Слой_1" xmlns="http://www.w3.org/2000/svg" x="0" y="0" viewBox="0 0 350 250" xml:space="preserve"><style>.st0{fill:#94bcde}</style><path class="st0" d="M11.5 65.2h104.8c1.2 0 2.2 1 2.2 2.2v104.8c0 1.2-1 2.2-2.2 2.2H11.5c-1.2 0-2.2-1-2.2-2.2V67.4c-.1-1.2.9-2.2 2.2-2.2z"/><path d="M20.6 74.3h86.6c1.2 0 2.2 1 2.2 2.2v86.6c0 1.2-1 2.2-2.2 2.2H20.6c-1.2 0-2.2-1-2.2-2.2V76.5c-.1-1.2.9-2.2 2.2-2.2z" fill="#4b5482"/><path class="st0" d="M43.4 142.6c-1.2 0-2.2-1-2.2-2.2v-41c0-1.2.8-2.1 1.9-2.2 6.6-.9 15.7-1 21.1 3.8 2.8 2.5 4.3 6.1 4.2 9.9-.1 4.6-2.5 8.9-6.4 11.3-4.8 3-10.7 4.2-16.3 3.2v15.2c0 1-1.1 2-2.3 2zm2.3-22.1c4.8 1 9.7.2 13.9-2.3 2.7-1.5 4.4-4.4 4.4-7.4.1-2.5-.8-4.8-2.7-6.4-4.6-3-10.2-4-15.6-2.9v19zm36.6 22.2c-3.2 0-6.2-1-8.7-3-.9-.9-.9-2.3-.1-3.2.9-.9 2.3-.9 3.2-.1 2.2 1.6 5 2.1 7.6 1.4.5-.2 2.2-.9 2.2-4.3 0-3-1.6-3.9-5.6-5.2-3.4-1.2-8.1-2.7-8.1-8.4-.2-3.5 1.8-6.9 5.1-8.3 4.3-1.6 9-.8 12.5 2.1.9.9.9 2.3.1 3.2-.9.9-2.3.9-3.2.1-2.2-1.7-5-2.1-7.5-1.2-1.6.7-2.5 2.4-2.3 4.1 0 2.2 1.4 3 5 4.1 3.8 1.2 8.7 3 8.7 9.5.4 3.6-1.7 7-5 8.4-1.2.5-2.6.8-3.9.8z"/><path fill="#eacb6d" d="M249.1 105.3V73.2l35.7-6.7 35.7 6.7v32.1z"/><path fill="#f5e5b5" d="M249.1 105.3l35.7-38.8 35.7 38.8z"/><path fill="#d99c53" d="M227.6 105.3l57.2 68 57.2-68z"/><path fill="#e7c057" d="M249.1 105.3l35.7 68 35.7-68z"/><path d="M227.6 105.3l21.5-32.1v32.1zm92.9-32.1v32.1H342z" fill="#e4bb57"/><path id="path0_fill" d="M156.5 174.7c10.1 0 18.3-8.2 18.3-18.3v-18.3h-18.3c-10.1 0-18.3 8.2-18.3 18.3-.1 10.1 8.1 18.3 18.3 18.3z" fill="#58a177"/><path id="path1_fill" d="M138.1 119.9c0-10.1 8.2-18.3 18.3-18.3h18.3v36.6h-18.3c-10.1 0-18.3-8.2-18.3-18.3z" fill="#8774a8"/><path id="path1_fill_1_" d="M138.1 83.4c0-10.1 8.2-18.3 18.3-18.3h18.3v36.6h-18.3c-10.1-.1-18.3-8.3-18.3-18.3z" fill="#c4654d"/><path id="path2_fill" d="M174.7 65.1H193c10.1 0 18.3 8.2 18.3 18.3s-8.2 18.3-18.3 18.3h-18.3V65.1z" fill="#cc7a71"/><path id="path3_fill" d="M211.2 119.9c0 10.1-8.2 18.3-18.3 18.3-10.1 0-18.3-8.1-18.3-18.3 0-10.1 8.2-18.3 18.3-18.3 10.1 0 18.3 8.2 18.3 18.3z" fill="#53a3cd"/></svg>