<svg version="1.1" id="layer1" xmlns="http://www.w3.org/2000/svg" x="0" y="0" viewBox="0 0 350 250" xml:space="preserve"><style>@keyframes fill1{0%,33%{fill:#00a388}34%{fill:#fff}}@keyframes fill2{0%,33%,68%{fill:#fff}34%,67%{fill:#00a388}}@keyframes fill3{0%,68%{fill:#fff}69%,99%{fill:#00a388}}</style><g id="layer2" fill="#fff"><g id="layer3"><path style="animation:fill2 15s linear infinite" d="M97 39.2h175.3v132.6H97z" id="layer4"/><path style="animation:fill1 15s linear infinite" d="M53 115.3h121.5v88.5H53z"/><path style="animation:fill3 15s linear infinite" d="M265 136.8h34.8v56.8H265z"/></g><path d="M177 150.5h15V169h-15z"/></g><path d="M304 131.4c-.1-.4-.2-.7-.3-1-.1-.3-.3-.6-.5-.9-.2-.3-.4-.6-.7-.8-.2-.2-.5-.5-.8-.7s-.6-.4-.9-.5c-.3-.1-.7-.2-1-.3-.4-.1-.7-.1-1.1-.1h-16.3V29.3H86.8v76.1H43.3V214h152.1v-32.6h65.2v16.3c0 .4 0 .7.1 1.1.1.4.2.7.3 1 .1.3.3.6.5.9s.4.6.7.8c.2.2.5.5.8.7.3.2.6.4.9.5.3.1.7.2 1 .3.4.1.7.1 1.1.1h32.6c.4 0 .7 0 1.1-.1.4-.1.7-.2 1-.3.3-.1.6-.3.9-.5s.6-.4.8-.7c.2-.2.5-.5.7-.8s.4-.6.5-.9c.1-.3.2-.7.3-1 .1-.4.1-.7.1-1.1v-65.2c.1-.4.1-.7 0-1.1zm-130.3 71.7H54.2v-86.9h119.6v86.9zm6.5-43.4c0-2.4 1.9-4.3 4.3-4.3s4.3 1.9 4.3 4.3-1.9 4.3-4.3 4.3-4.3-1.9-4.3-4.3zm80.4 10.8h-65.2v-65.2H97.6V40.2h173.8v86.9h-5.5c-.4 0-.7 0-1.1.1s-.7.2-1 .3c-.3.1-.6.3-.9.5-.3.2-.6.4-.8.7-.2.2-.5.5-.7.8-.2.3-.4.6-.5.9-.1.3-.2.7-.3 1-.1.4-.1.7-.1 1.1v38h.1zm38.1 21.8h-32.6v-54.4h32.7v54.4z" fill="#1f1f1f"/></svg>