<svg version="1.1" id="Слой_1" xmlns="http://www.w3.org/2000/svg" x="0" y="0" viewBox="0 0 350 250" xml:space="preserve"><style>.st5{fill:#131414}</style><circle cx="176.4" cy="123.8" r="82" fill="#c6565d"/><path d="M176.4 41.7c-2 0-4 .1-5.9.2 42.5 3.1 76.1 38.5 76.1 81.9s-33.6 78.8-76.1 81.9c2 .1 4 .2 5.9.2 45.3 0 82-36.7 82-82s-36.6-82.2-82-82.2z" fill="#c4514c"/><circle cx="176.4" cy="123.8" r="65.8" fill="#f6f7f8"/><path d="M176.4 58c-2 0-4 .1-5.9.3 33.5 3 59.8 31.2 59.8 65.5s-26.3 62.5-59.8 65.5c2 .2 4 .3 5.9.3 36.4 0 65.8-29.4 65.8-65.8S212.8 58 176.4 58z" fill="#e9e8e7"/><circle cx="176.4" cy="123.8" r="25.4" fill="#c6565d"/><path class="st5" d="M275 120.8h-13.6c-.6-17.4-6.4-33.9-16.8-47.9-1-1.3-2.8-1.6-4.2-.6-1.3 1-1.6 2.8-.6 4.2 9.7 13 15.1 28.2 15.6 44.3h-10.2C243.6 85.2 215 56.5 179.4 55V44.7c20 .7 38.7 8.9 52.9 23.1 1.2 1.2 3.1 1.2 4.2 0 1.2-1.2 1.2-3.1 0-4.2-15.3-15.3-35.6-24.1-57.1-24.9V25.1c0-1.6-1.4-3-3-3s-3 1.4-3 3v13.6c-21.9.7-42.2 9.7-57.6 25.4-1.1 1.2-1.1 3.1.1 4.2.6.6 1.4.8 2.1.8.8 0 1.5-.3 2.1-.9 14.3-14.6 33.2-22.8 53.4-23.6V55c-35.6 1.5-64.2 30.2-65.7 65.7H97.4c.6-15.9 5.8-31 15.2-43.8 1-1.3.7-3.2-.6-4.1-1.3-1-3.2-.7-4.1.6-10.3 13.9-15.9 30.1-16.4 47.3H77.8c-1.6 0-3 1.4-3 3s1.4 3 3 3h13.6c.7 21.6 9.5 41.8 24.9 57.1s35.6 24.1 57.1 24.9v13.6c0 1.6 1.4 3 3 3s3-1.4 3-3v-13.6c21.6-.7 41.8-9.5 57.1-24.9s24.1-35.6 24.9-57.1H275c1.6 0 3-1.4 3-3s-1.3-2.9-3-2.9zm-98.6-59.9c34.7 0 62.8 28.2 62.8 62.8s-28.2 62.8-62.8 62.8-62.8-28.1-62.8-62.7 28.1-62.9 62.8-62.9zm-79 65.8h10.3c1.5 35.6 30.2 64.2 65.7 65.7v10.3c-41.2-1.5-74.5-34.7-76-76zm82 76v-10.3c35.6-1.5 64.2-30.2 65.7-65.7h10.3c-1.5 41.3-34.8 74.5-76 76z"/><path class="st5" d="M173.5 151.9v17.9c0 1.6 1.4 3 3 3s3-1.4 3-3v-17.9c13.2-1.4 23.8-11.9 25.2-25.2h17.9c1.6 0 3-1.4 3-3s-1.4-3-3-3h-17.9c-1.4-13.2-11.9-23.8-25.2-25.2V77.6c0-1.6-1.4-3-3-3s-3 1.4-3 3v17.9c-13.2 1.4-23.8 11.9-25.2 25.2h-17.9c-1.6 0-3 1.4-3 3s1.4 3 3 3h17.9c1.3 13.3 11.9 23.8 25.2 25.2zm0-50.3v11.8c0 1.6 1.4 3 3 3s3-1.4 3-3v-11.8c10 1.4 17.9 9.2 19.2 19.2h-11.8c-1.6 0-3 1.4-3 3s1.4 3 3 3h11.8c-1.4 10-9.2 17.9-19.2 19.2v-11.8c0-1.6-1.4-3-3-3s-3 1.4-3 3V146c-10-1.4-17.9-9.2-19.2-19.2H166c1.6 0 3-1.4 3-3s-1.4-3-3-3h-11.8c1.4-10 9.3-17.9 19.3-19.2z"/></svg>