<svg xmlns="http://www.w3.org/2000/svg" viewBox="0 0 350 250"><path d="M147.9 226.5c19.2 0 34.8-15.6 34.8-34.8V157h-34.8c-19.2 0-34.8 15.6-34.8 34.8s15.6 34.7 34.8 34.7z" fill="#53ae7b"/><path d="M113.2 122.3c0-19.2 15.6-34.8 34.8-34.8h34.8V157H148c-19.3 0-34.8-15.6-34.8-34.7z" fill="#8b75b2"/><path d="M113.2 52.8c0-19.2 15.6-34.8 34.8-34.8h34.8v69.5H148c-19.3 0-34.8-15.6-34.8-34.7z" fill="#d55e43"/><path d="M182.7 18h34.8c19.2 0 34.8 15.6 34.8 34.8s-15.6 34.8-34.8 34.8h-34.8V18z" fill="#dc786e"/><path d="M252.2 122.3c0 19.2-15.6 34.8-34.8 34.8s-34.8-15.6-34.8-34.8 15.6-34.8 34.8-34.8 34.8 15.6 34.8 34.8z" fill="#40b2e9"/></svg>