<svg xmlns="http://www.w3.org/2000/svg" viewBox="0 0 350 250"><path d="M202.6 102.6c-6.3 0-11 3.1-11 10.6 0 5.6 3.1 9.5 10.7 9.5 6.4 0 10.8-3.8 10.8-9.8 0-6.8-3.9-10.3-10.5-10.3zM190 155.3c-1.5 1.8-3 3.8-3 6.1 0 4.6 5.9 6 13.9 6 6.7 0 15.7-.5 15.7-6.7 0-3.7-4.4-3.9-9.9-4.3.1.1-16.7-1.1-16.7-1.1zm34-52.4c2.1 2.6 4.3 6.3 4.3 11.6 0 12.8-10 20.2-24.5 20.2-3.7 0-7-.5-9.1-1l-3.8 6.1 11.3.7c19.9 1.3 31.6 1.8 31.6 17.1 0 13.2-11.6 20.7-31.6 20.7-20.8 0-28.7-5.3-28.7-14.4 0-5.2 2.3-7.9 6.3-11.7-3.8-1.6-5.1-4.5-5.1-7.6 0-2.5 1.3-4.8 3.3-7 2.1-2.2 4.4-4.4 7.1-6.9-5.6-2.8-9.9-8.7-9.9-17.2 0-13.2 8.7-22.3 26.3-22.3 4.9 0 7.9.5 10.6 1.2h22.4v9.8c.1-.1-10.5.7-10.5.7zM254.8 82c-6.6 0-10.3-3.8-10.3-10.3 0-6.5 3.8-10.1 10.3-10.1 6.7 0 10.5 3.6 10.5 10.1-.1 6.5-3.9 10.3-10.5 10.3zM240 151.1V142l5.9-.8c1.6-.2 1.8-.6 1.8-2.3v-33.8c0-1.3-.3-2.1-1.5-2.4l-6.2-2.2 1.3-9.3H265v47.7c0 1.8.1 2.1 1.8 2.3l5.9.8v9.1H240zm78.1-4.5c-4.9 2.4-12.2 4.6-18.7 4.6-13.7 0-18.8-5.5-18.8-18.5v-30.1c0-.7 0-1.1-.9-1.1h-8V91.3c10.1-1.2 14.1-6.2 15.4-18.7H298v16.3c0 .8 0 1.2.9 1.2H315v11.5h-17.1v27.5c0 6.8 1.6 9.4 7.8 9.4 3.2 0 6.5-.8 9.3-1.8l3.1 9.9z" fill="#2e221a"/><path d="M147.9 116.5L95.4 64c-3-3-7.9-3-11 0L73.5 74.9l13.8 13.8c3.2-1.1 6.9-.4 9.5 2.2 2.6 2.6 3.3 6.3 2.2 9.5l13.3 13.3c3.2-1.1 6.9-.4 9.5 2.2 3.6 3.6 3.6 9.4 0 13-3.6 3.6-9.4 3.6-13 0-2.7-2.7-3.4-6.7-2-10l-12.4-12.4v32.7c.9.4 1.7 1 2.4 1.7 3.6 3.6 3.6 9.4 0 13-3.6 3.6-9.4 3.6-13 0-3.6-3.6-3.6-9.4 0-13 .9-.9 1.9-1.6 3-2v-33c-1.1-.4-2.1-1.1-3-2-2.7-2.7-3.4-6.7-2-10.1L68.1 80.2l-36 36c-3 3-3 7.9 0 11l52.5 52.5c3 3 7.9 3 11 0l52.3-52.3c3-3 3-7.9 0-10.9z" fill="#d65e45"/><path d="M29.8 61.6h288.3V182H29.8V61.6z" fill="none"/></svg>