<svg xmlns="http://www.w3.org/2000/svg" viewBox="0 0 350 250"><path d="M213.4 181.4l-6.3 11-2.1 35.8c0 4-12.6 7.2-28.1 7.2s-28.1-3.2-28.1-7.2l-2.6-35.4-6.6-11.3c18.3 7.6 56.1 7.4 73.8-.1zM126 68.5l6.1 56c2.6-8.9 9.3-21 17.8-24.6 2.8-1.2 5.7-1.2 8.3.4 2.3 1.3 4.3 4.1 4.5 5.3.5 2.9-.9 4.1-2 4.1-1.3 0-2.4-2.1-3-3.3-1.8-3.3-4.6-3.4-7.5-1.2-3.1 2.2-5.8 6-7.6 9.2-2.3 3.9-4.2 8.2-5.4 12.6-.7 2.5-1.3 6.5-.3 8.9.4 1 1.1 1.6 2.2 1.6 2.2 0 5.5-2.9 7-4.5 2-2 4.6-5.1 5.6-7.1l2.3-6.9c1.2-3 4.4-2.5 4.4 0 0 4.5-1.6 6.1-4.5 15.5-2.6 8.7-3.4 11.5-3.4 11.5-.3 1.2-1.5 3.3-2.8 3.3-.5 0-.9-.2-1.2-.5-.4-.6-.4-2.4-.4-2.8.1-1.4 2.8-9.9 3.3-11.2-.9 1-1.8 2-2.9 2.9-2.4 2.3-6.3 5.3-9.6 5.3-1.5 0-2.5-.4-3.4-1.1l3.4 35.5c.9 2.2 17.5 7.6 39.3 7.6 21.9 0 38.5-5.4 39.3-7.6l4.9-42.2c-2.5 2.3-5.5 5.2-8.7 6.6-2.4 1-7.8 1.7-7.8-2.5 0-2.3 4.1-6.6 6.4-9.6.6-.8 2.1-2.6 2.1-3.6 0-1.3-2.7-1-5.2 1.1-1.4 1.2-2.8 2.8-3.9 4.3-1.9 2.7-2.9 5-3.8 6.9-2.8 6.3-1.8 3.8-4.1 9.8-2.2 5.9-1.9 5.3-2.3 6.2-.4.8-1 1.6-1.8 2-.8.4-2 .4-2.7-.1-.4-.3-.6-.8-.6-1.6 0-.4 0-.8.1-1.2.7-2.7 3.5-8.1 6.7-15.3.7-1.6.4-1.2.4-1-2.8 2.7-4.9 4-6.4 4.7-2.6 1.2-5.8 1.2-6.5-1.8 0-.2 0-.4-.1-.5-5.3 4.1-10.8 5.2-8.9-3.6-2.1 3.7-5.6 6.6-10 6.6-1.8 0-3.2-.6-3.8-2.3-1-2.5.6-6.6 2.1-10.6.8-2 1.8-4.4 3.2-7.2.7-1.5 1.9-2.4 3.4-2 .3.1.5.2.7.3 1.2.8.7 2 .1 3.2-1.7 3.3-3.2 5.8-4.1 9.3-.4 1.5-.9 4 .7 4 1.1 0 2.1-.4 3.1-1.1 2.1-1.5 3.7-3.8 4.9-6 .9-1.6 2-3.7 2.5-5.5.2-.8.5-1.5.8-2.1.5-1.1 1.2-2.3 2.3-2.3.6 0 1.1.2 1.4.7.8 1 .6 2 .2 3.1-.9 2.5-2.1 4.7-3.1 7.4-.6 1.6-1.2 3.6-1.2 5.2 0 1.5 1.6 1.2 3 .5 1.1-.5 2.1-1.2 3-2 .5-2.2.4-1.7 11.8-30.4.6-1.5 1.6-2.1 2.7-2.1.5 0 1 .2 1.4.5.8.6.8 1.8.4 2.8-.3.8-.3.6-2 4.7-2.3 5.4-3.8 9.3-5.9 14.2-.8 2.1-3.4 8.4-3.9 9.9-.3 1-.6 2.6.4 2.6 2.4 0 8.6-5.8 10.3-7.6.1-.1.2-.2.4-.3.3-.8.5-1.6.8-2.5.6-1.7 1.2-3.7 2.4-5 .4-.4.8-.7 1.2-.7 1.2 0 1.9.5 1.9 1.8 0 .5-.3 2.3-.5 2.8.6-.7 1.3-1.3 2-2 6.7-6.2 11.5-3 11.5.1 0 3.3-4 7.9-6.2 10.4-.7.8-2.2 2.4-2.2 2.9 0 .6.4.8 1 .8.9 0 2.9-1.6 3.6-2.1 2.2-1.7 5.3-4.4 7.4-6.3l6.6-61C214.2 76 139.7 76 126 68.5zm102.4-3.8c0 9.4-103.1 9.4-103.1 0 0-3.9 23.1-7.1 51.5-7.1 4 0 7.9 0 11.7.2l5.6-21.7 27.3-28.8c.6-.6 2.6-.1 4.4 1.6s2.9 3.5 2.4 4.1l-25.6 27-4.5 18.1c17.9 1.2 30.3 3.7 30.3 6.6zm-30.9 2c0-.4-.4-.7-1.1-.9l-.1.4c0 .6-2.2 1.1-4.9 1.1s-4.9-.5-4.9-1.1v-.1l.1-.3c-.8.3-1.3.6-1.3 1 0 .9 2.8 1.6 6.1 1.6s6.1-.7 6.1-1.7z" fill="#c54e4d"/></svg>