<svg version="1.1" id="Слой_3" xmlns="http://www.w3.org/2000/svg" x="0" y="0" viewBox="0 0 350 250" xml:space="preserve"><style>.st2{fill:#fff}.st3{fill:#131414}</style><path d="M166.7 62.9l-12.5 144.6c-18.5 14.3-41.7 22.8-66.9 22.8-24.9 0-48-8.4-66.4-22.5L8.4 62.9h158.3z" fill="#cc5d48"/><path fill="#d0704b" d="M87.5 76.5V227l52-14.6 11.6-135.9z"/><path class="st2" d="M38.3 95.3l5 60.4h67.8l-2.1 25-21.5 5.8-22.2-6.3-.5-15.5H44.1l2.5 30.6 40.9 11.6 41-11.6 5-59.9H62.1l-1.8-19.6 74.9-.4 1.6-20.1z"/><path class="st3" d="M42.6 19.1v10.3h-9.9V19.1h-9.3v29.7h9.3v-9.7h9.9v9.7h9.2V19.1zm42 0H56.2v10.3h9.2v19.7h10V29.4h9.2zm52.8 20.5V19.3h-10v29.8h24.3v-9.5zm-24.9-20.3l-7 10.7-6.9-10.7h-10v29.8h10V34.4l6.9 10.5 7-10.5v14.7h9.9V19.3z"/><path d="M343.3 63.2l-12.4 144.1c-18.4 14.3-41.5 22.7-66.6 22.7-25.1 0-48.3-8.5-66.6-22.7L185.2 63.2h158.1z" fill="#4d6fa2"/><path fill="#4c8bbb" d="M264.2 76.7v150.5l52-14.6 11.6-135.9z"/><path class="st2" d="M310.2 135.6h-37.6l39.2-19.9 1.7-20.1h-98.6l1.7 20.4h39.6l-37.9 19 1.7 20.9h67.7l-2.2 25-21.3 5.7-22.2-6.1-.6-15.6h-20.7l2.6 30.6 40.9 11.5 40.9-11.5z"/><path d="M225.6 40.9V26.8h20.5V19h-27.8v29.6h27.8v-7.7zm32.5-10.3v-3.5h20.3V19h-27.8v18.4h19.9v3.5h-19.9v7.7h27.8v-18zm31.7 0v-3.5h20.4V19h-27.9v18.4h20v3.5h-20v7.7h27.9v-18z" fill="#1d1c1e"/><path class="st3" d="M191.1 30.2h-8c-.2 0-.4-.2-.4-.4v-8c0-1.3-1-2.4-2.4-2.4-1.3 0-2.4 1-2.4 2.4v8c0 .2-.2.4-.4.4h-8c-1.3 0-2.4 1-2.4 2.4 0 1.3 1 2.4 2.4 2.4h8c.2 0 .4.2.4.4v8c0 1.3 1 2.4 2.4 2.4 1.3 0 2.4-1 2.4-2.4v-8c0-.2.2-.4.4-.4h8c1.3 0 2.4-1 2.4-2.4-.1-1.4-1.1-2.4-2.4-2.4z"/></svg>