<svg version="1.1" id="Слой_2" xmlns="http://www.w3.org/2000/svg" x="0" y="0" viewBox="0 0 350 250" xml:space="preserve"><style>.st0{fill:#db7543}</style><path class="st0" d="M79.3 22H278c2.4 0 4.3 1.9 4.3 4.3V225c0 2.4-1.9 4.3-4.3 4.3H79.3c-2.4 0-4.3-1.9-4.3-4.3V26.3c0-2.4 1.9-4.3 4.3-4.3z"/><path d="M96.6 39.3h164.1c2.4 0 4.3 1.9 4.3 4.3v164.1c0 2.4-1.9 4.3-4.3 4.3H96.6c-2.4 0-4.3-1.9-4.3-4.3V43.6c0-2.4 1.9-4.3 4.3-4.3z" fill="#5c3f36"/><path class="st0" d="M191.6 168.9c-1.9 0-3.5-1.2-4.1-3l-21.8-65.5-21.8 65.5c-.8 2.2-3.3 3.4-5.6 2.5-2.1-.8-3.3-3.1-2.6-5.3l25.9-77.7c1-2.3 3.7-3.3 5.9-2.2 1 .5 1.8 1.2 2.2 2.2l25.9 77.7c.8 2.3-.5 4.7-2.7 5.5-.4.2-.8.3-1.3.3z"/><path class="st0" d="M183 142.9h-34.6c-2.4 0-4.3-1.9-4.3-4.3s1.9-4.3 4.3-4.3H183c2.4 0 4.3 1.9 4.3 4.3s-1.9 4.3-4.3 4.3zm34.5 26c-2.4 0-4.3-1.9-4.3-4.3v-60.5c0-2.4 1.9-4.3 4.3-4.3s4.3 1.9 4.3 4.3v60.5c.1 2.3-1.9 4.3-4.3 4.3z"/><circle class="st0" cx="217.5" cy="86.8" r="4.3"/></svg>