<svg xmlns="http://www.w3.org/2000/svg" viewBox="0 0 350 250"><path d="M257.2 58.6H101.4L116 217l63.3 18 63.3-18 14.6-158.4z" fill="#dfa346"/><path d="M179.3 71.5v150l51.3-14.5 12.5-135.5h-63.8z" fill="#e9bc46"/><path d="M220.1 90.9h-78.8l-5.5 59.3.1-.4h67l-2.2 25.1-21.4 6.2-21.7-6.2-1.3-15.2h-19.7l2.8 30.3 39.9 11.3 39.9-11.3 5.5-59.6h-71.1l.9-19.8h49.3l.7 11.4h19.9l-4.3-31.1z" fill="#fff"/><path d="M179.3 90.9h-38.1l-5.5 59.3.1-.4h43.4v-19.3h-23l.9-19.8h22V90.9zm-22.9 68.8h-19.7l2.8 30.3 39.9 11.3v-20.2l-21.7-6.3-1.3-15.1z" fill="#ecebeb"/><path d="M164.2 35.2h-13.9v10h23.8V15.6h-9.9v19.6zm44.1-19.4h-24.2v10.4c3.2 3.2 4.9 4.8 9.7 9.5h-9.7V45h24.2v-9.4l-9.7-9.5h9.7V15.8z" fill="#211c1d"/></svg>