<svg version="1.1" id="Слой_1" xmlns="http://www.w3.org/2000/svg" x="0" y="0" viewBox="0 0 350 250" xml:space="preserve"><style>.st0{fill:#19191a}.st1{fill:#4b658c}</style><path class="st0" d="M328.1 93.5l14 .1s-26 35.3-28.2 38.2c-.7.9-1.7 1.9-2.3 3.2-1.3 3.1-2.7 10-2.7 10l-12.8.1s2-7.2 1.9-11c-.1-3.3-1.8-6.7-2.7-10-1-3.4-2.3-10-2.3-10h13.2l1.8 7.3 20.1-27.9"/><path class="st0" d="M301.6 100.9c2.6 1.6 4.2 10.2 4.2 10.2s-13.5.2-20.9.2h-6.4l-7.7 33.6H259s7.4-36.5 9.1-43.2c.6-2.1 3.9-1.8 9.4-1.8h8.9c5.7.1 12.4-.6 15.2 1m-55 16.4s.4-2.2-1.2-4.7c-1.4-2.1-2.7-2.6-6.3-2.7-10.3-.3-10.1 7.3-10.1 7.3l17.6.1zm11.2-8.7c1.5 5.4-1.4 18.2-1.4 18.2s-15-.2-23.2 0c-2.5.1-5.6-.3-6.4.9-1.1 1.7.4 4.2 1.6 5.3 1.4 1.2 4.2 1.4 5.2 1.5 6.7.8 20.6.2 20.6.2l-2.4 10.7s-19.7 1-29.5-1.4c-1.9-.5-3.8-1.4-5-2.7-.3-.4-.6-.9-.9-1.3-.3-.3-1-1.5-1.3-2.3-2.2-6 .3-17.5 2.7-23.6.3-.7.6-1.6 1-2.4.5-1 .9-2 1.2-2.6.3-.4.6-.6.8-1 .3-.4.7-.9 1-1.2.9-1.1 1.9-1.8 3.2-2.7 4.1-3.1 11.5-5.5 20.4-4.5 3.4.3 8.4 1.5 10.9 5 .8.7 1.1 2.6 1.5 3.9zm-54.2-8.7l11.5-.1s-6.4 30.3-9.6 45h-13.2c-9.2 0-17.4 1.1-20.9-5.5-3.4-6.4-.2-16.9 1.4-24.1 1.1-5.1 3.3-15.4 3.3-15.4l11.9-.1s-3.4 16.1-4.7 24.1c-.5 2.9-1.5 5.6-.5 7.7 1 2 2.5 2.2 6.8 2.3h5.9l8.1-33.9M150 121.7c1.2-4.3 2.9-8.9 2.7-12.7-.2-4.1-3.7-7.8-5.9-8.6-6.7-2.4-13 .9-15.4 3.6-3.2 3.5-4.3 7.6-5.5 13.2-.8 4.2-1.5 8.6 0 11.8 2.7 5.7 11.3 4.5 20.4 4.5 1.4-3.6 2.5-7.7 3.7-11.8zm15.9-16.8c1.3 9.5-3.7 20-7.2 29.1 3.5.3 6.6 0 6.8.2.2.3-2.4 10.9-3.3 10.9-2.8.1-12.1.1-15.9.1-12.6 0-24.4.8-30.4-5.5-2.4-2.5-4.1-6.9-4.5-10-.7-5.1.2-10.8 1.4-15.4 1.1-4.2 2.5-8.2 4.5-11.8 5.3-9.3 14.5-16.1 30-14.5 3 .3 7.3 1.6 10 3.2.2.1.8.6 1 .7 3.6 2.4 6.9 8 7.6 13zm-55.8-4.9c-.8 3.5-1.5 7.4-2.3 10.8H95c1-3.8 1.7-7.6 2.7-10.9 4.1 0 7.9.1 12.4.1m-15.5 14h12.3c-1.6 8.9-4.8 23.2-7.3 33.2-1.6 6.2-2.6 10.8-6.8 14.1-.4.3-.6.2-.9.5-.8.7-4.4 1.6-6.4 1.8-3.2.4-6.9 0-10.9 0 1-3.8 2.2-8.4 3.1-11.8 9.7 1.2 9.9-8 11.8-16.8 1.2-5.2 4.4-18.9 5.1-21"/><path class="st1" d="M66 137.2l-.3.7c-4.5 8.7-12.4 14.1-23.7 14.3-5.3.1-10.3-1.2-13.6-2.7-7.1-3.2-13.1-9.1-16.4-15.4-4.7-9.1-5.5-21.7 4.2-31.1.2 0-1.2 2-1 2l-.3.9c-7 22 14.6 40.8 35.6 38.7 5.1-.7 11.5-3.4 15.5-7.4"/><path class="st1" d="M53.2 128.1c5.3 0 10.8-2.4 14.1-5.9-2.9 7.3-11.1 11.9-22.3 10.4-9.3-1.2-18.2-10.6-19.1-20-.7-6.8 1.7-10.9 5.6-15.8-1.4 2.6-1.9 4.6-2 5.9-1.4 14.7 11.9 25.3 23.7 25.4"/><path class="st1" d="M66.8 109.8c-.8 1.9-5.6 5.4-7.6 5.9-8.3 1.8-13.6-2.2-16.4-6.6-.4-.7-1.2-2.5-1.3-3-1.1-3.7-.6-9.2 2.6-12.1-1 2.7-1.1 5.9-.6 8 .3 1.2 1.2 3.4 2.2 4.8 1.7 2.5 2.8 3.1 5 4.4 1 .6 2.1 1.1 2.5 1.2 2.1.6 6.5 2.2 13.6-2.6"/></svg>