<svg version="1.1" id="Слой_1" xmlns="http://www.w3.org/2000/svg" xmlns:xlink="http://www.w3.org/1999/xlink" x="0" y="0" viewBox="0 0 350 250" xml:space="preserve"><style>.st0{fill:#799d67}.st3{clip-path:url(#XMLID_5_)}.st4{fill:none}</style><path class="st0" d="M175 230.5c-1 0-2-.3-2.9-.8l-9.4-5.5c-1.4-.8-.7-1.1-.3-1.2 1.9-.6 2.2-.8 4.2-1.9.2-.1.5-.1.7.1l7.2 4.3c.3.1.6.1.9 0l28.1-16.2c.3-.1.4-.4.4-.8V176c0-.3-.2-.6-.4-.8l-28-16.2c-.3-.2-.6-.2-.9 0l-28.1 16.2c-.3.2-.4.5-.4.8v32.4c0 .3.2.6.4.8l7.7 4.4c4.2 2.1 6.7-.4 6.7-2.8v-32c0-.5.4-.8.8-.8h3.6c.4 0 .8.4.8.8v32c0 5.6-3 8.8-8.3 8.8-1.6 0-2.9 0-6.5-1.8l-7.4-4.2c-1.8-1.1-2.9-3-2.9-5.1V176c0-2.1 1.1-4.1 2.9-5.1l28.1-16.2c1.8-1 4.1-1 5.9 0l28.1 16.2c1.8 1.1 3 3 3 5.1v32.4c0 2.1-1.1 4.1-3 5.1l-28 16.2c-.9.5-1.9.8-3 .8z"/><path class="st0" d="M183.7 208.2c-12.3 0-14.9-5.6-14.9-10.4 0-.5.4-.8.8-.8h3.6c.4 0 .7.3.8.7.5 3.7 2.2 5.6 9.6 5.6 5.9 0 8.4-1.3 8.4-4.5 0-1.8-.7-3.2-9.9-4.1-7.7-.8-12.4-2.5-12.4-8.6 0-5.7 4.8-9 12.8-9 9 0 13.5 3.1 14 9.8 0 .2-.1.5-.2.6-.2.2-.4.3-.6.3h-3.6c-.4 0-.7-.3-.8-.6-.9-3.9-3-5.1-8.8-5.1-6.5 0-7.2 2.3-7.2 3.9 0 2 .9 2.6 9.6 3.8 8.6 1.1 12.7 2.8 12.7 8.8.1 6.1-5 9.6-13.9 9.6zm40.5-34c0 3-2.4 5.4-5.4 5.4-3 0-5.4-2.4-5.4-5.4 0-3.1 2.5-5.4 5.4-5.4 2.9 0 5.4 2.3 5.4 5.4zm-9.9 0c0 2.5 2 4.6 4.5 4.6s4.6-2.1 4.6-4.6c0-2.5-2.1-4.5-4.6-4.5-2.5-.1-4.5 1.9-4.5 4.5zm2.5-3.1h2.1c.7 0 2.1 0 2.1 1.6 0 1.1-.7 1.3-1.1 1.5.8.1.9.6 1 1.4.1.5.1 1.3.3 1.6h-1.3c0-.3-.2-1.8-.2-1.9-.1-.3-.2-.5-.6-.5H218v2.4h-1.2v-6.1zm1.1 2.7h.9c.8 0 .9-.5.9-.9 0-.8-.6-.8-.9-.8h-1v1.7z"/><path d="M88.1 103.7c0-1.3-.7-2.5-1.8-3.1L56.5 83.4c-.5-.3-1.1-.5-1.6-.5h-.3c-.6 0-1.1.2-1.6.5l-29.8 17.1c-1.1.6-1.8 1.8-1.8 3.1l.1 46.1c0 .6.3 1.2.9 1.6.6.3 1.2.3 1.8 0l17.7-10.1c1.1-.7 1.8-1.8 1.8-3.1v-21.6c0-1.3.7-2.5 1.8-3.1l7.5-4.3c.6-.3 1.2-.5 1.8-.5.6 0 1.2.2 1.8.5l7.5 4.3c1.1.6 1.8 1.8 1.8 3.1v21.6c0 1.3.7 2.5 1.8 3.1l17.7 10.1c.6.3 1.2.3 1.8 0 .5-.3.9-.9.9-1.6v-46zm143.2-63.5c-.6-.3-1.2-.3-1.8 0-.5.3-.9.9-.9 1.6v45.7c0 .4-.2.9-.6 1.1-.4.2-.9.2-1.3 0l-7.5-4.3c-1.1-.6-2.5-.6-3.6 0l-29.8 17.2c-1.1.6-1.8 1.8-1.8 3.1V139c0 1.3.7 2.5 1.8 3.1l29.8 17.2c1.1.6 2.5.6 3.6 0l29.8-17.2c1.1-.6 1.8-1.8 1.8-3.1V53.3c0-1.3-.7-2.5-1.8-3.1l-17.7-10zm-2.7 87.5c0 .3-.2.6-.5.8l-10.2 5.9c-.3.2-.6.2-.9 0l-10.2-5.9c-.3-.2-.4-.5-.4-.8v-11.8c0-.3.2-.6.4-.8l10.2-5.9c.3-.2.6-.2.9 0l10.2 5.9c.3.2.4.5.4.8v11.8zm101.9-12.1c1.1-.6 1.8-1.8 1.8-3.1v-8.3c0-1.3-.7-2.5-1.8-3.1l-29.6-17.2c-1.1-.6-2.5-.6-3.6 0L267.6 101c-1.1.6-1.8 1.8-1.8 3.1v34.4c0 1.3.7 2.5 1.8 3.1l29.6 16.9c1.1.6 2.4.6 3.5 0l17.9-9.9c.6-.3.9-.9.9-1.6 0-.6-.3-1.2-.9-1.6l-30-17.2c-.6-.3-.9-.9-.9-1.6v-10.8c0-.6.3-1.2.9-1.6l9.3-5.4c.6-.3 1.2-.3 1.8 0l9.3 5.4c.6.3.9.9.9 1.6v8.5c0 .6.3 1.2.9 1.6.6.3 1.2.3 1.8 0l17.9-10.3z" fill-rule="evenodd" clip-rule="evenodd" fill="#353535"/><path d="M298.7 114c.2-.1.5-.1.7 0l5.7 3.3c.2.1.3.4.3.6v6.6c0 .2-.1.5-.3.6l-5.7 3.3c-.2.1-.5.1-.7 0l-5.7-3.3c-.2-.1-.3-.4-.3-.6v-6.6c0-.2.1-.5.3-.6l5.7-3.3z" fill-rule="evenodd" clip-rule="evenodd" fill="#799d67"/><defs><path id="XMLID_143_" d="M137.9 84c-1.1-.6-2.5-.6-3.6 0l-29.6 17.1c-1.1.6-1.8 1.8-1.8 3.1v34.2c0 1.3.7 2.5 1.8 3.1l29.6 17.1c1.1.6 2.5.6 3.6 0l29.6-17.1c1.1-.6 1.8-1.8 1.8-3.1v-34.2c0-1.3-.7-2.5-1.8-3.1L137.9 84z"/></defs><linearGradient id="XMLID_4_" gradientUnits="userSpaceOnUse" x1="148.138" y1="96.754" x2="121.376" y2="151.349"><stop offset="0" stop-color="#5b8646"/><stop offset=".331" stop-color="#5d8945"/><stop offset=".639" stop-color="#629542"/><stop offset=".938" stop-color="#6ba73d"/><stop offset="1" stop-color="#6dac3b"/></linearGradient><use xlink:href="#XMLID_143_" overflow="visible" fill-rule="evenodd" clip-rule="evenodd" fill="url(#XMLID_4_)"/><clipPath id="XMLID_5_"><use xlink:href="#XMLID_143_" overflow="visible"/></clipPath><g class="st3"><path class="st4" d="M134.2 84l-29.7 17.1c-1.1.6-1.9 1.8-1.9 3.1v34.2c0 .8.4 1.6.9 2.3l33.4-57.1c-.9-.2-1.8 0-2.7.4zm2.9 75c.3-.1.6-.2.8-.3l29.7-17.1c1.1-.6 1.9-1.8 1.9-3.1v-34.2c0-.9-.4-1.8-1.1-2.5L137.1 159z"/><linearGradient id="SVGID_1_" gradientUnits="userSpaceOnUse" x1="131.585" y1="125.326" x2="206.679" y2="69.843"><stop offset=".138" stop-color="#5b8646"/><stop offset=".4" stop-color="#6f9e4c"/><stop offset=".712" stop-color="#82b552"/><stop offset=".908" stop-color="#88be55"/></linearGradient><path d="M167.6 101.1L137.9 84c-.3-.2-.6-.3-.9-.4l-33.4 57.1c.3.3.6.6 1 .8l29.8 17.1c.8.5 1.8.6 2.8.3l31.3-57.3c-.4-.1-.6-.3-.9-.5z" fill="url(#SVGID_1_)"/></g><g class="st3"><path class="st4" d="M169.4 138.4v-34.2c0-1.3-.8-2.5-1.9-3.1L137.9 84c-.3-.2-.7-.3-1.1-.4l32.6 55.6v-.8zm-64.8-37.3c-1.1.6-1.9 1.8-1.9 3.1v34.2c0 1.3.8 2.5 1.9 3.1l29.8 17.1c.7.4 1.5.6 2.3.4l-32-58-.1.1z"/><linearGradient id="SVGID_2_" gradientUnits="userSpaceOnUse" x1="101.848" y1="77.855" x2="170.34" y2="77.855"><stop offset=".092" stop-color="#88be55"/><stop offset=".288" stop-color="#82b552"/><stop offset=".6" stop-color="#6f9e4c"/><stop offset=".862" stop-color="#5b8646"/></linearGradient><path fill="url(#SVGID_2_)" d="M133.3 77.7l-.4.3h.6z"/><linearGradient id="SVGID_3_" gradientUnits="userSpaceOnUse" x1="101.848" y1="121.317" x2="170.34" y2="121.317"><stop offset=".092" stop-color="#88be55"/><stop offset=".288" stop-color="#82b552"/><stop offset=".6" stop-color="#6f9e4c"/><stop offset=".862" stop-color="#5b8646"/></linearGradient><path d="M167.6 141.5c.9-.5 1.5-1.3 1.8-2.3l-32.6-55.6c-.9-.2-1.8 0-2.5.4l-29.5 17 31.9 58.1c.5-.1.9-.2 1.3-.4l29.6-17.2z" fill="url(#SVGID_3_)"/><linearGradient id="SVGID_4_" gradientUnits="userSpaceOnUse" x1="101.848" y1="140.87" x2="170.34" y2="140.87"><stop offset=".092" stop-color="#88be55"/><stop offset=".288" stop-color="#82b552"/><stop offset=".6" stop-color="#6f9e4c"/><stop offset=".862" stop-color="#5b8646"/></linearGradient><path fill="url(#SVGID_4_)" d="M170.3 141l-.2-.4v.5z"/><linearGradient id="SVGID_5_" gradientUnits="userSpaceOnUse" x1="101.848" y1="149.708" x2="170.34" y2="149.708"><stop offset=".092" stop-color="#88be55"/><stop offset=".288" stop-color="#82b552"/><stop offset=".6" stop-color="#6f9e4c"/><stop offset=".862" stop-color="#5b8646"/></linearGradient><path d="M167.6 141.5l-29.7 17.1c-.4.2-.9.4-1.3.4l.6 1.1 32.9-19.1v-.4l-.8-1.4c-.2 1-.9 1.8-1.7 2.3z" fill="url(#SVGID_5_)"/><linearGradient id="SVGID_6_" gradientUnits="userSpaceOnUse" x1="180.318" y1="95.135" x2="138.077" y2="181.307"><stop offset="0" stop-color="#5b8646"/><stop offset=".331" stop-color="#5d8945"/><stop offset=".639" stop-color="#629542"/><stop offset=".938" stop-color="#6ba73d"/><stop offset="1" stop-color="#6dac3b"/></linearGradient><path d="M167.6 141.5l-29.7 17.1c-.4.2-.9.4-1.3.4l.6 1.1 32.9-19.1v-.4l-.8-1.4c-.2 1-.9 1.8-1.7 2.3z" fill="url(#SVGID_6_)"/></g></svg>