<svg version="1.1" id="Слой_1" xmlns="http://www.w3.org/2000/svg" x="0" y="0" viewBox="0 0 350 250" xml:space="preserve"><style>.st0{fill:#93c5ef}</style><path class="st0" d="M80 22h198c2.4 0 4.3 1.9 4.3 4.3v198.1c0 2.4-1.9 4.3-4.3 4.3H80c-2.4 0-4.3-1.9-4.3-4.3V26.3c0-2.4 1.9-4.3 4.3-4.3z"/><path d="M97.2 39.2h163.6c2.4 0 4.3 1.9 4.3 4.3v163.6c0 2.4-1.9 4.3-4.3 4.3H97.2c-2.4 0-4.3-1.9-4.3-4.3V43.5c0-2.4 1.9-4.3 4.3-4.3z" fill="#485188"/><path class="st0" d="M140.2 168.4c-2.4 0-4.3-1.9-4.3-4.3V86.6c0-2.2 1.6-4 3.7-4.3 12.6-1.7 29.8-1.9 40 7.1 5.3 4.7 8.2 11.6 7.9 18.7-.1 8.7-4.7 16.8-12.2 21.3-9.2 5.7-20.2 7.9-30.9 6v28.7c.2 2.4-1.8 4.3-4.2 4.3zm4.4-41.8c9 2 18.3.4 26.1-4.4 5.1-2.9 8.3-8.3 8.3-14.1.3-4.6-1.6-9.1-5-12.2-8.7-5.6-19.3-7.5-29.5-5.5l.1 36.2zm69.2 42c-5.9 0-11.7-2-16.3-5.7-1.7-1.7-1.7-4.4-.1-6.1 1.7-1.7 4.4-1.7 6.1-.1 4.2 3.1 9.5 4 14.5 2.6 1-.4 4.1-1.7 4.1-8.1 0-5.7-3.1-7.3-10.6-9.9-6.5-2.2-15.3-5.2-15.3-16-.4-6.7 3.4-13 9.6-15.6 8-3.1 17-1.6 23.5 3.9 1.7 1.6 1.8 4.4.2 6.1-1.6 1.7-4.4 1.8-6.1.2-4.1-3.1-9.4-3.9-14.2-2.2-3 1.3-4.8 4.4-4.4 7.7 0 4.2 2.6 5.5 9.4 7.8 7 2.4 16.5 5.6 16.5 18 .7 6.8-3.1 13.2-9.3 16-2.5.9-5 1.4-7.6 1.4z"/></svg>