<svg xmlns="http://www.w3.org/2000/svg" viewBox="0 0 350 250"><path d="M172.5 173.5c-.2.2-.3.4 0 0zm104.6-36.6c-8.4 0-16.8 1.9-24.4 5.7-2.5-5-5-9.4-5.5-12.6-.5-3.8-1.1-6.1-.5-10.6.6-4.5 3.2-11 3.2-11.4 0-.5-.6-2.8-6-2.8s-10.1 1.1-10.6 2.5c-1 2.6-1.7 5.3-2.2 8-1 4.9-10.8 22.5-16.4 31.6-1.8-3.6-3.4-6.7-3.7-9.2-.5-3.8-1.1-6.1-.5-10.6.6-4.5 3.2-11 3.2-11.4 0-.5-.6-2.8-6-2.8s-10.1 1.1-10.6 2.5-1.1 4.8-2.2 8-14.2 32.5-17.7 40.1c-1.8 3.9-3.3 7-4.4 9.1-.2.3-.3.5-.4.7.1-.2.2-.4.2-.3-.9 1.8-1.5 2.8-1.5 2.8-.7 1.3-1.5 2.6-1.9 2.6-.3 0-.8-3.5.1-8.4 2-10.2 6.6-26 6.6-26.5 0-.3.9-3-3.1-4.5-3.8-1.4-5.2.9-5.5.9s-.6.8-.6.8 4.2-17.8-8.1-17.8c-7.7 0-18.5 8.5-23.8 16.2-3.3 1.8-10.5 5.7-18.1 9.9-2.9 1.6-5.9 3.2-8.7 4.8l-.6-.6c-15-16-42.8-27.4-41.6-48.9.4-7.9 3.2-28.5 53.4-53.5 41.2-20.5 74.1-14.9 79.8-2.4 8.1 17.9-17.6 51.1-60.4 55.9-16.3 1.8-24.9-4.5-27-6.8-2.2-2.5-2.6-2.6-3.4-2.1-1.4.8-.5 2.9 0 4.2 1.3 3.3 6.5 9.2 15.5 12.1 7.9 2.6 27 4 50.1-5 26-10 46.2-37.9 40.2-61.2-6-23.7-45.3-31.5-82.5-18.3-22.1 7.9-46.1 20.2-63.3 36.3-20.5 19.2-23.7 35.8-22.4 42.8 4.8 24.7 38.9 40.9 52.5 52.8-.7.4-1.3.7-1.9 1.1-6.8 3.4-32.8 17-39.4 31.4-7.4 16.3 1.2 28 6.8 29.6 17.6 4.9 35.5-3.9 45.2-18.3 9.7-14.4 8.5-33.2 4-41.8 0-.1-.1-.2-.2-.3 1.8-1.1 3.6-2.1 5.4-3.2 3.5-2.1 6.9-3.9 9.9-5.6-1.7 4.5-2.9 10-3.5 17.9-.8 9.2 3.1 21.2 8 25.9 2.2 2.1 4.8 2.1 6.5 2.1 5.8 0 8.4-4.8 11.3-10.5 3.6-7 6.7-15.1 6.7-15.1s-3.9 21.9 6.8 21.9c3.9 0 7.9-5.1 9.7-7.7 0 0 .1-.2.3-.5.4-.6.6-1 .6-1v-.1c1.6-2.7 5.1-9 10.3-19.3 6.8-13.4 13.3-30 13.3-30 .6 3.7 1.5 7.3 2.6 10.8 1.2 4 3.7 8.4 5.6 12.6-1.6 2.2-2.6 3.4-2.6 3.4v.1c-1.3 1.7-2.7 3.5-4.2 5.3-5.4 6.4-11.8 13.7-12.6 15.8-1 2.5-.8 4.3 1.2 5.8 1.4 1.1 3.9 1.3 6.6 1.1 4.8-.3 8.2-1.5 9.9-2.3 3-1.1 5.9-2.6 8.5-4.5 5.3-3.9 8.4-9.4 8.1-16.7-.2-4-1.5-8.1-3.1-11.8.5-.7 1-1.4 1.4-2.1 8.3-12.1 14.7-25.5 14.7-25.5.6 3.7 1.5 7.3 2.6 10.8 1 3.4 3 7.1 4.8 10.8-7.8 6.3-12.6 13.7-14.3 18.5-3.1 8.9-.7 13 3.9 13.9 2.1.4 5-.5 7.2-1.5 3.2-1.1 6.3-2.7 9.1-4.7 5.3-3.9 10.3-9.3 10-16.6-.1-3.3-1.1-6.6-2.3-9.8 6.6-2.8 15.2-4.3 26.1-3 23.4 2.7 28 17.3 27.1 23.4-.9 6.1-5.8 9.5-7.4 10.5-1.6 1-2.1 1.4-2 2.1.2 1.1 1 1.1 2.4.8 1.9-.3 12.3-5 12.7-16.3 1.1-14.4-12.7-30.1-37-30zM96.8 197.7c-7.7 8.4-18.6 11.6-23.2 8.9-5-2.9-3-15.3 6.5-24.3 5.8-5.5 13.3-10.5 18.2-13.6 1.1-.7 2.8-1.7 4.8-2.9.3-.2.5-.3.5-.3.4-.3.8-.5 1.2-.7 3.5 12.8.2 24-8 32.9zm56.5-38.4c-2.7 6.6-8.4 23.4-11.8 22.5-2.9-.8-4.7-13.6-.6-26.2 2.1-6.3 6.6-13.9 9.2-16.8 4.2-4.7 8.9-6.3 10-4.4 1.5 2.5-5.1 20.8-6.8 24.9zm46.6 22.3c-1.1.6-2.2 1-2.7.7-.4-.2.5-1 .5-1s5.8-6.3 8.1-9.1c1.3-1.7 2.9-3.7 4.6-5.8v.7c0 7.4-7.2 12.5-10.5 14.5zm36-8.2c-.8-.6-.7-2.6 2.1-8.7 1.1-2.4 3.6-6.4 8-10.3.5 1.5.8 3 .8 4.5-.1 9.5-6.9 13-10.9 14.5z" fill="#b55681"/></svg>