<svg xmlns="http://www.w3.org/2000/svg" viewBox="0 0 350 250" enable-background="new 0 0 350 250"><defs><filter id="a" filterUnits="userSpaceOnUse" x="61.2" y="19" width="217.6" height="216.3"><feColorMatrix values="1 0 0 0 0 0 1 0 0 0 0 0 1 0 0 0 0 0 1 0"/></filter></defs><mask maskUnits="userSpaceOnUse" x="61.2" y="19" width="217.6" height="216.3" id="b"><path d="M215.5 234.4c3.4 1.3 7.3 1.2 10.8-.4l44.8-21.5c4.7-2.3 7.7-7 7.7-12.2V54.1c0-5.2-3-10-7.7-12.2l-44.8-21.5c-4.5-2.2-9.8-1.6-13.8 1.2-.6.4-1.1.9-1.6 1.4l-85.7 78.2-37.4-28.4c-3.5-2.6-8.3-2.4-11.6.5l-12 10.9c-3.9 3.6-4 9.8 0 13.4l32.4 29.5-32.4 29.5c-3.9 3.6-3.9 9.8 0 13.4l12 10.9c3.2 2.9 8.1 3.2 11.6.5l37.3-28.3 85.7 78.2c1.4 1.4 3 2.4 4.7 3.1zm8.9-156.6l-65 49.4 65 49.4V77.8z" fill="#fff" filter="url(#a)"/></mask><g mask="url(#b)"><path d="M271.1 41.9l-44.8-21.6c-5.2-2.5-11.4-1.4-15.5 2.6L64.1 156.7c-3.9 3.6-3.9 9.8 0 13.4l12 10.9c3.2 2.9 8.1 3.2 11.6.5l176.6-134c5.9-4.5 14.4-.3 14.4 7.2v-.5c.1-5.3-2.9-10-7.6-12.3z" fill="#4b6b99"/><path d="M271.1 212.4L226.3 234c-5.2 2.5-11.4 1.4-15.5-2.6L64.1 97.6c-3.9-3.6-3.9-9.8 0-13.4l12-10.9c3.2-2.9 8.1-3.2 11.6-.5l176.6 134c5.9 4.5 14.4.3 14.4-7.2v.5c.1 5.3-2.9 10.1-7.6 12.3z" fill="#4b7bb3"/><path d="M226.3 234c-5.2 2.5-11.4 1.4-15.5-2.6 5 5 13.6 1.5 13.6-5.6V28.6c0-7.1-8.6-10.6-13.6-5.6 4.1-4.1 10.3-5.1 15.5-2.6l44.8 21.5c4.7 2.3 7.7 7 7.7 12.2v146.1c0 5.2-3 10-7.7 12.2L226.3 234z" fill="#4695d5"/><g opacity=".25"><linearGradient id="c" gradientUnits="userSpaceOnUse" x1="169.908" y1="233.007" x2="169.908" y2="16.667" gradientTransform="matrix(1 0 0 -1 0 252)"><stop offset="0" stop-color="#fff"/><stop offset="1" stop-color="#fff" stop-opacity="0"/></linearGradient><path d="M215.4 234.4c3.4 1.3 7.3 1.2 10.8-.4l44.8-21.5c4.7-2.3 7.7-7 7.7-12.2V54.1c0-5.2-3-10-7.7-12.2l-44.8-21.5c-4.5-2.2-9.8-1.6-13.8 1.2-.6.4-1.1.9-1.6 1.4L125 101.2 87.7 72.8c-3.5-2.6-8.3-2.4-11.6.5l-12 10.9c-3.9 3.6-4 9.8 0 13.4l32.4 29.5-32.4 29.5c-3.9 3.6-3.9 9.8 0 13.4l12 10.9c3.2 2.9 8.1 3.2 11.6.5l37.3-28.3 85.7 78.2c1.4 1.4 3 2.4 4.7 3.1zm8.9-156.6l-65 49.4 65 49.4V77.8z" fill="url(#c)"/></g></g></svg>