<svg version="1.1" id="Слой_1" xmlns="http://www.w3.org/2000/svg" x="0" y="0" viewBox="0 0 350 250" xml:space="preserve"><style>.st0{fill:#e49944}.st1{fill:#efbb44}.st2{fill:#d96f43}</style><path class="st0" d="M61.2 170.9L32.7 139l87.3-31.8 13.6 37.4-72.4 26.3z"/><path class="st1" d="M61 170.4l-1.3 42.8 87.3-31.8-13.6-37.4L61 170.4z"/><path class="st2" d="M303.7 82.7c12.5 36.1-27.7 83.6-90.2 106.3S89.8 201.2 76.2 165.6l227.5-82.9z"/><path d="M303.7 82.7C290.1 47 228.8 36.4 166.3 59.2S63.6 129.4 76.2 165.6l227.5-82.9z" fill="#f6cd45"/><path class="st0" d="M303.7 82.7c7.8 24.2-35.9 61.8-98.1 84.4S85.7 189 76.2 165.5l227.5-82.8z"/><path class="st1" d="M303.7 82.7c-9.4-23.6-67.1-24.4-129.5-1.8s-106 60.4-98.1 84.6l227.6-82.8z"/><path class="st2" d="M198.7 50c-5.9-20.6-12.7-32-20.4-31.8-14.9.4-19.9 47.6-15.1 108 4.9 61 17.5 106.9 33.2 106.5 9.4-.2 14.7-15.2 16.5-41.3 0-.5-.6-.2-.5-.7 0 0-.1-.9-.4-1l-2-.1c-1.6 25.3-6.6 39.9-13.6 40-12.9.3-25.4-45-30.1-103.7-4.6-57.7.4-104.3 12.1-104.7 5.6-.2 11.8 10.3 17.3 29.3l3-.5z"/><path class="st2" d="M125.1 35.3c-12.7 7.8 6.6 51.1 40.9 101 34.7 50.4 68.6 83.8 82 75.6 7.5-4.6 5.4-18.5-4.3-39.6-.2-.5-.7-.9-1.3-.9s-1.1.2-1.4.6c-.3.5-.4 1.1-.1 1.6 9 19.6 10.9 32.4 5.4 35.7-11 6.7-44.5-26.3-77.9-74.7-32.8-47.7-51.9-90.5-41.9-96.7 5.3-3.3 17.9 4.6 34.6 21.7.2.2 1.3 1.3 1.5 1.4.5.2.3-.9.7-1.3.3-.3.5-.7.5-1.1 0-.4-.2-.8-.4-1.1-17.7-18.3-31.1-26.6-38.3-22.2z"/></svg>